<svg width="36" height="38" viewBox="0 0 36 38" fill="none" xmlns="http://www.w3.org/2000/svg">
    <path d="M18.925 17.925L26.725 25.725C26.125 22.825 24.625 18.325 23.025 13.725L18.925 17.925Z" fill="white"/>
    <path d="M22.425 12.225C20.625 7.225 18.725 2.525 17.825 0.0250015C16.825 2.525 14.925 7.225 13.225 12.225L17.825 16.825L22.425 12.225Z" fill="white"/>
    <path d="M35.425 1.325C35.725 1.025 35.725 0.525 35.425 0.225C35.125 -0.075 34.625 -0.075 34.325 0.225L23.625 11.025C23.825 11.525 24.025 12.025 24.225 12.625L35.425 1.325Z" fill="white"/>
    <path d="M7.125 27.525L0.225 34.425C-0.075 34.725 -0.075 35.225 0.225 35.525C0.325 35.625 0.525 35.725 0.725 35.725C0.925 35.725 1.125 35.625 1.225 35.525L7.225 29.525C7.125 29.025 7.125 28.425 7.125 27.925C7.125 27.725 7.125 27.625 7.125 27.525Z" fill="white"/>
    <path d="M23.025 13.725L24.225 12.525C24.025 12.025 23.825 11.525 23.625 10.925L22.425 12.125C22.625 12.725 22.825 13.225 23.025 13.725Z" fill="white"/>
    <path d="M8.625 27.925C8.625 27.425 8.725 26.625 8.925 25.725L7.125 27.525C7.125 27.625 7.125 27.825 7.125 27.925C7.125 28.425 7.225 29.025 7.225 29.525L8.625 28.125C8.625 28.025 8.625 27.925 8.625 27.925Z" fill="white"/>
    <path d="M1.325 0.325C1.025 0.0250004 0.525 0.0250004 0.225 0.325C-0.075 0.625 -0.075 1.125 0.225 1.425L11.425 12.625C11.625 12.125 11.825 11.625 12.025 11.025L1.325 0.325Z" fill="white"/>
    <path d="M28.525 27.525C28.525 27.625 28.525 27.825 28.525 27.925C28.525 28.425 28.425 29.025 28.425 29.525L34.425 35.525C34.525 35.625 34.725 35.725 34.925 35.725C35.125 35.725 35.325 35.625 35.425 35.525C35.725 35.225 35.725 34.725 35.425 34.425L28.525 27.525Z" fill="white"/>
    <path d="M13.225 12.225L12.025 11.025C11.825 11.525 11.625 12.025 11.425 12.625L12.625 13.825C12.825 13.225 13.025 12.725 13.225 12.225Z" fill="white"/>
    <path d="M28.525 27.525L26.725 25.725C26.925 26.625 27.025 27.325 27.025 27.925C27.025 28.025 27.025 28.125 27.025 28.125L28.425 29.525C28.525 29.025 28.525 28.425 28.525 27.925C28.525 27.725 28.525 27.625 28.525 27.525Z" fill="white"/>
    <path d="M26.725 25.725C26.125 22.825 24.625 18.325 23.025 13.725L18.925 17.925L26.725 25.725Z" fill="white"/>
    <path d="M8.625 28.125C8.725 33.125 12.825 37.125 17.825 37.125C22.825 37.125 26.825 33.125 27.025 28.125L17.825 18.925L8.625 28.125Z" fill="white"/>
    <path d="M22.425 12.225C20.625 7.225 18.725 2.525 17.825 0.0250015C16.825 2.525 14.925 7.225 13.225 12.225L17.825 16.825L22.425 12.225Z" fill="white"/>
    <path d="M12.6249 13.725C11.0249 18.325 9.525 22.825 8.925 25.725L16.7249 17.925L12.6249 13.725Z" fill="white"/>
</svg>
