<svg width="46" height="46" viewBox="0 0 46 46" fill="none" xmlns="http://www.w3.org/2000/svg">
    <path d="M5.86074 34.6825H0V45.0021C0 45.5522 0.447831 46 0.997884 46H6.93651V35.7583C6.93651 35.1644 6.45461 34.6825 5.86074 34.6825Z"
          fill="white"/>
    <path d="M16.7937 27.7655V18.6385C16.7937 18.0447 16.3118 17.5628 15.7179 17.5628H0V28.8413H15.7179C16.3118 28.8413 16.7937 28.3594 16.7937 27.7655Z"
          fill="white"/>
    <path d="M17.1441 7.17503C16.6379 6.79534 16.2047 6.46434 15.8396 6.16254C13.5469 4.26899 13.6053 1.45545 13.8243 0H0.997884C0.447831 0 0 0.447831 0 0.997883V11.8042H22.3331C20.6732 9.84741 18.6775 8.33354 17.1441 7.17503Z"
          fill="white"/>
    <path d="M45.0021 0H15.309C15.124 1.06116 14.9342 3.5145 16.7693 5.03323C17.11 5.31556 17.5335 5.63683 18.0252 6.00677C21.4374 8.59153 27.785 13.396 26.8893 21.2574C25.9693 29.328 25.1953 38.2165 27.7168 41.5412C29.6688 44.1113 30.6423 45.4499 31.0415 46H45.0021C45.5522 46 46 45.5522 46 45.0021V0.997883C46 0.447831 45.5522 0 45.0021 0ZM23.4429 8.92254L23.0487 8.62561C20.8923 7.01439 18.4535 5.18413 17.8353 2.25862C17.7526 1.86434 18.0057 1.47492 18.4 1.39217C18.7943 1.30942 19.1837 1.56254 19.2664 1.95683C19.7678 4.34201 21.8853 5.92402 23.9249 7.45249L24.324 7.75429C26.7287 9.56508 29.0068 12.3981 30.2772 15.1484C30.4476 15.5134 30.287 15.9467 29.9219 16.117C29.8245 16.1608 29.7175 16.1852 29.6152 16.1852C29.3378 16.1852 29.0749 16.0294 28.9532 15.7617C27.7801 13.2159 25.6675 10.597 23.4478 8.92254H23.4429ZM32.8863 44.6662C32.7549 44.7685 32.5943 44.8171 32.4385 44.8171C32.2195 44.8171 32.0053 44.7198 31.8592 44.5348C28.8948 40.699 27.7363 36.873 28.1062 32.1221C28.2474 30.2967 28.5638 28.4762 28.8656 26.7141C29.2696 24.3824 29.6834 21.968 29.6834 19.5877C29.6834 19.1837 30.0095 18.8576 30.4135 18.8576C30.8176 18.8576 31.1437 19.1837 31.1437 19.5877C31.1437 22.0946 30.7153 24.5723 30.3016 26.9672C30.0046 28.6952 29.6931 30.4817 29.5568 32.2389C29.2112 36.6637 30.2432 40.076 33.008 43.6489C33.2563 43.9702 33.1979 44.4277 32.8766 44.6711L32.8863 44.6662Z"
          fill="white"/>
    <path d="M22.0265 18.6385V27.7655C22.0265 28.3594 22.5084 28.8413 23.1022 28.8413H24.6988C24.8595 26.3393 25.1369 23.7107 25.4339 21.0919C25.5799 19.8263 25.5118 18.6531 25.2878 17.5628H23.1022C22.5084 17.5628 22.0265 18.0447 22.0265 18.6385Z"
          fill="white"/>
    <path d="M13.3522 34.6825C12.7583 34.6825 12.2764 35.1644 12.2764 35.7583V46H29.2356C28.6855 45.2504 27.8288 44.1016 26.5583 42.4271C25.2684 40.7283 24.7134 37.9829 24.5869 34.6825H13.3522Z"
          fill="white"/>
</svg>
