<svg width="46" height="46" viewBox="0 0 46 46" fill="none" xmlns="http://www.w3.org/2000/svg">
    <path d="M43.4 35.3L31.1 25.9C30.6 25.5 30.4 25 30.3 24.4C30.3 23.8 30.5 23.3 30.9 22.9C32.1 21.7 32.4 19.8 31.5 18.4L29.5 14.7L14.5 29.7L18.2 31.7C19.7 32.5 21.5 32.2 22.7 31.1C23.1 30.7 23.6 30.5 24.1 30.5H24.2C24.8 30.5 25.3 30.8 25.7 31.3L35.3 43.5C36.3 44.8 37.9 45.7 39.5 45.8C41.2 45.9 42.8 45.3 44 44.1C45.2 42.9 45.8 41.3 45.7 39.6C45.6 37.9 44.8 36.4 43.4 35.3Z" fill="white"/>
    <path d="M21.6 0L0 21.7L2.2 22.9L20.7 4.4C21 4.1 21.5 4.1 21.8 4.4C22.1 4.7 22.1 5.2 21.8 5.5L3.5 23.6L13.2 28.9L28.9 13.3L21.6 0Z" fill="white"/>
</svg>
