<svg width="46" height="46" viewBox="0 0 46 46" fill="none" xmlns="http://www.w3.org/2000/svg">
    <path d="M42.9 25H28.2C26.5 25 25.1 26.4 25.1 28.1V42.8C25.1 44.5 26.5 45.9 28.2 45.9H42.9C44.6 45.9 46 44.5 46 42.8V28.1C46 26.4 44.6 25 42.9 25Z" fill="white"/>
    <path d="M17.8 0H3.1C1.4 0 0 1.4 0 3.1V17.8C0 19.5 1.4 20.9 3.1 20.9H17.8C19.5 20.9 20.9 19.5 20.9 17.8V3.1C21 1.4 19.6 0 17.8 0Z" fill="white"/>
    <path d="M17.8 25H3.1C1.4 25 0 26.4 0 28.1V42.8C0 44.5 1.4 45.9 3.1 45.9H17.8C19.5 45.9 20.9 44.5 20.9 42.8V28.1C21 26.4 19.6 25 17.8 25Z" fill="white"/>
    <path d="M42.9 0H28.2C26.5 0 25.1 1.4 25.1 3.1V17.8C25.1 19.5 26.5 20.9 28.2 20.9H42.9C44.6 20.9 46 19.5 46 17.8V3.1C46 1.4 44.6 0 42.9 0Z" fill="white"/>
</svg>
