<svg width="52" height="49" viewBox="0 0 52 49" fill="none" xmlns="http://www.w3.org/2000/svg">
    <path d="M18.0082 7.99893L19.0082 7.39893C19.6082 7.09893 19.4082 6.29893 19.2082 5.89893C19.1082 5.69893 18.9082 5.39893 18.5082 5.39893C18.4082 5.39893 18.3082 5.39893 18.2082 5.49893C17.6082 5.79893 17.0082 6.19893 16.3082 6.59893C15.1082 7.29893 13.8082 7.89893 12.4082 7.99893C10.8082 8.09893 9.60816 7.89893 8.20816 8.29893C5.50816 9.09893 3.00816 11.0989 0.408163 13.3989C-0.091837 13.7989 0.00816334 14.4989 0.00816334 14.7989C0.108163 15.2989 0.408163 15.5989 0.608163 15.6989C0.608163 15.6989 0.708163 15.6989 1.00816 15.5989L1.30816 15.2989C1.60816 14.9989 2.10816 15.0989 2.30816 15.3989C2.40816 15.4989 2.50816 15.4989 2.60816 15.4989C6.80816 14.8989 11.0082 12.3989 15.1082 9.89893C16.1082 9.09893 17.0082 8.59893 18.0082 7.99893Z" fill="white"/>
    <path d="M50.6082 37.5989C50.4082 37.5989 50.1082 37.4989 50.0082 37.2989C49.9082 37.0989 49.8082 36.8989 49.9082 36.5989C50.1082 36.0989 49.9082 35.3989 49.6082 35.0989C49.5082 34.9989 49.4082 34.8989 49.1082 34.9989C47.0082 35.6989 44.8082 36.3989 42.6082 37.0989C42.3082 37.1989 42.0082 37.0989 41.8082 36.7989C41.7082 36.6989 41.7082 36.5989 41.6082 36.5989C41.2082 36.4989 41.0082 36.0989 41.1082 35.6989C41.1082 35.5989 41.1082 35.5989 41.1082 35.4989C41.1082 35.1989 41.3082 34.9989 41.6082 34.8989L41.8082 34.7989C41.9082 34.7989 42.2082 34.6989 42.3082 34.1989C42.4082 33.6989 42.3082 32.9989 41.9082 32.6989C41.8082 32.5989 41.6082 32.4989 41.4082 32.5989C39.6082 33.0989 37.8082 33.7989 35.9082 34.4989C35.7082 34.5989 35.4082 34.5989 35.2082 34.3989C35.0082 34.2989 34.9082 34.0989 34.9082 33.7989C34.9082 33.3989 34.7082 32.9989 34.5082 32.7989C34.4082 32.6989 34.3082 32.6989 34.1082 32.7989C33.1082 33.0989 32.1082 33.4989 31.0082 33.9989C30.8082 34.0989 30.6082 34.0989 30.4082 33.9989C30.2082 33.8989 30.1082 33.6989 30.0082 33.4989C30.0082 33.3989 29.9082 33.2989 29.9082 33.1989C29.8082 32.9989 29.8082 32.7989 29.8082 32.5989C29.9082 32.3989 30.0082 32.1989 30.2082 32.1989C32.9082 30.6989 35.3082 29.6989 37.8082 29.1989C37.9082 29.1989 38.1082 29.0989 38.2082 28.7989C38.4082 28.2989 38.2082 27.6989 37.9082 27.2989C37.8082 27.0989 37.7082 26.8989 37.7082 26.6989C37.7082 26.4989 37.9082 26.2989 38.1082 26.1989C39.5082 25.4989 40.5082 24.8989 41.5082 24.2989C41.9082 23.9989 42.0082 23.2989 41.8082 22.6989C41.8082 22.5989 41.6082 22.0989 41.2082 22.0989C37.4082 22.3989 33.7082 23.0989 30.2082 24.1989C29.9082 24.2989 29.5082 24.1989 29.3082 23.7989C29.1082 23.4989 29.2082 23.0989 29.5082 22.8989C29.9082 22.5989 30.4082 22.2989 30.8082 21.8989C31.1082 21.6989 31.3082 21.1989 31.2082 20.6989C31.2082 20.4989 31.1082 20.0989 30.8082 19.8989C29.8082 19.2989 28.6082 18.8989 27.3082 18.9989C27.0082 18.9989 26.7082 18.7989 26.6082 18.4989C26.5082 18.1989 26.6082 17.7989 26.9082 17.6989C28.0082 16.8989 28.8082 16.0989 29.4082 15.1989C29.7082 14.7989 29.8082 14.1989 29.6082 13.7989C29.5082 13.5989 29.4082 13.2989 29.1082 13.0989C26.4082 11.9989 23.5082 13.4989 20.7082 14.9989C20.2082 15.2989 19.7082 15.4989 19.3082 15.6989C15.2082 17.6989 11.2082 20.0989 7.00818 23.0989C6.40818 23.4989 6.50818 24.4989 6.90818 24.8989C7.30818 25.3989 7.60818 25.1989 7.70818 25.0989C9.50818 23.7989 11.4082 22.5989 13.3082 21.3989C13.6082 21.1989 14.1082 21.2989 14.3082 21.5989C14.5082 21.8989 14.5082 22.2989 14.2082 22.5989C12.8082 23.8989 11.8082 25.5989 11.2082 27.7989C11.0082 28.4989 11.4082 28.8989 11.5082 28.9989C11.7082 29.0989 11.8082 29.3989 11.8082 29.5989C11.8082 29.7989 11.7082 29.9989 11.5082 30.1989C8.70818 32.2989 6.00818 34.9989 3.50818 38.0989C3.00818 38.7989 3.30818 39.3989 3.40818 39.5989C3.60818 39.8989 3.90818 40.0989 4.30818 40.0989C8.70818 39.2989 12.5082 36.6989 16.4082 33.9989L16.8082 33.6989C17.1082 33.4989 17.6082 33.4989 17.8082 33.8989C18.0082 34.1989 18.0082 34.6989 17.7082 34.8989C14.1082 37.6989 10.5082 40.9989 7.00818 44.6989C6.60818 45.0989 6.70818 45.7989 7.00818 46.2989C7.10818 46.3989 7.30818 46.7989 7.60818 46.6989C12.4082 44.8989 16.8082 41.6989 21.0082 38.5989L21.5082 38.1989C21.7082 37.9989 22.0082 37.9989 22.3082 38.0989C22.6082 38.1989 22.7082 38.4989 22.7082 38.7989C22.7082 39.1989 22.8082 39.4989 22.9082 39.7989C23.0082 39.9989 23.0082 40.1989 23.0082 40.3989C22.9082 40.5989 22.9082 40.7989 22.9082 41.0989C22.9082 41.3989 22.8082 41.5989 22.6082 41.7989C20.8082 42.9989 19.1082 44.1989 17.6082 45.3989C17.1082 45.7989 17.1082 46.4989 17.3082 46.9989C17.4082 47.0989 17.6082 47.6989 18.2082 47.5989C21.2082 46.9989 24.1082 45.7989 26.9082 44.4989C27.0082 44.4989 27.1082 44.3989 27.2082 44.3989C27.5082 44.3989 27.7082 44.4989 27.8082 44.7989C28.0082 45.0989 27.9082 45.5989 27.6082 45.7989L27.4082 45.9989C27.0082 46.2989 26.9082 47.0989 27.1082 47.6989C27.3082 48.1989 27.5082 48.0989 27.6082 48.0989C30.2082 47.7989 32.6082 46.6989 35.1082 45.5989L35.6082 45.3989C35.8082 45.2989 36.1082 45.2989 36.3082 45.3989C36.4082 45.3989 36.5082 45.4989 36.6082 45.3989L51.0082 40.0989C51.5082 39.8989 51.6082 39.2989 51.6082 38.7989C51.2082 37.9989 50.9082 37.5989 50.6082 37.5989Z" fill="white"/>
    <path d="M33.9081 15.599C34.0081 16.099 34.3081 16.399 34.4081 16.399C34.5081 16.399 34.6081 16.299 34.7081 16.1989C34.8081 16.0989 34.9081 15.999 35.0081 15.999C35.1081 15.899 35.1081 15.899 35.2081 15.799C35.4081 15.6989 35.5081 15.599 35.8081 15.599C36.0081 15.599 36.2081 15.699 36.3081 15.899C36.5081 16.1989 36.7081 16.099 36.8081 15.999C39.0081 14.999 40.8081 13.8989 42.4081 12.6989C43.7081 11.6989 44.9081 10.699 44.8081 8.99895C44.7081 8.39895 44.5081 7.89895 44.2081 7.79895H44.1081C44.1081 7.79895 44.0081 7.79895 43.9081 7.79895C40.4081 9.29895 37.1081 11.399 34.3081 14.099C33.8081 14.499 33.8081 15.099 33.9081 15.599Z" fill="white"/>
    <path d="M23.6081 6.19891C26.2081 7.89891 30.4081 5.49891 33.4081 3.69891C33.8081 3.39891 34.3081 3.19891 34.7081 2.99891C34.8081 2.89891 34.9081 2.79891 35.0081 2.69891C35.1081 2.39891 35.4081 2.19891 35.8081 2.29891C36.3081 2.29891 36.4081 1.89891 36.4081 1.59891C36.5081 0.998913 36.2081 0.0989132 35.6081 0.0989132C31.3081 -0.401087 27.2081 0.998913 23.7081 4.19891C23.4081 4.39891 23.2081 4.99891 23.2081 5.49891C23.3081 5.69891 23.3081 5.99891 23.6081 6.19891Z" fill="white"/>
</svg>
