<svg width="44" height="44" viewBox="0 0 44 44" fill="none" xmlns="http://www.w3.org/2000/svg">
    <path d="M27.2999 10.8C27.4999 10.8 27.7999 10.9 27.9999 10.9C28.0999 10.9 28.2999 10.9 28.3999 11C28.5999 11 28.8999 11.1 29.0999 11.1C29.1999 11.1 29.2999 11.1 29.4999 11.1C29.9999 11.2 30.4999 11.2 30.9999 11.2L38.0999 0H34.0999L27.2999 10.8Z" fill="white"/>
    <path d="M16.0999 7.39998L20.7999 0.0999756H16.7999L12.3999 6.99998C13.4999 6.99998 14.7999 7.09998 16.0999 7.39998Z" fill="white"/>
    <path d="M11.3 35.6C11.6313 35.6 11.9 35.3313 11.9 35C11.9 34.6686 11.6313 34.4 11.3 34.4C10.9686 34.4 10.7 34.6686 10.7 35C10.7 35.3313 10.9686 35.6 11.3 35.6Z" fill="white"/>
    <path d="M9.2 0H5.2L0 8.2V8.8C0.9 8.5 2.5 8 4.4 7.6L9.2 0Z" fill="white"/>
    <path d="M24.0999 9.9C24.6999 10.1 25.1999 10.2 25.6999 10.4L32.2999 0H28.2999L22.3999 9.3C22.9999 9.5 23.4999 9.7 24.0999 9.9Z" fill="white"/>
    <path d="M21 8.7L26.5 0H22.5L17.6 7.7C18.7 7.9 19.9 8.3 21 8.7Z" fill="white"/>
    <path d="M0 0V5.4L3.4 0H0Z" fill="white"/>
    <path d="M10.5999 6.9L14.9999 0H10.9999L6.3999 7.2C7.6999 7 9.0999 6.9 10.5999 6.9Z" fill="white"/>
    <path d="M8.99998 21.6C9.49703 21.6 9.89998 21.197 9.89998 20.7C9.89998 20.2029 9.49703 19.8 8.99998 19.8C8.50292 19.8 8.09998 20.2029 8.09998 20.7C8.09998 21.197 8.50292 21.6 8.99998 21.6Z" fill="white"/>
    <path d="M42.9999 9.59998C43.1999 9.49998 43.2999 9.49998 43.4999 9.39998C43.5999 9.39998 43.5999 9.29998 43.6999 9.29998V3.09998L38.8999 10.7C40.5999 10.3 42.0999 9.89998 42.9999 9.59998Z" fill="white"/>
    <path d="M33.6 32.9C34.6493 32.9 35.5 32.0493 35.5 31C35.5 29.9506 34.6493 29.1 33.6 29.1C32.5506 29.1 31.7 29.9506 31.7 31C31.7 32.0493 32.5506 32.9 33.6 32.9Z" fill="white"/>
    <path d="M26.3 12.1C26.2 12.1 26 12 25.9 12C25.8 12 25.8 12 25.7 12C25.1 11.9 24.6 11.7 24 11.5C23.8 11.5 23.7 11.4 23.5 11.4C22.8 11.2 22.2 10.9 21.5 10.6C20.9 10.4 20.4 10.1 19.8 9.99997C19.6 9.89997 19.5 9.89997 19.3 9.79997C18.9 9.69997 18.5 9.59997 18.1 9.39997C18 9.39997 17.8 9.29997 17.7 9.29997C16.6 8.99997 15.5 8.79997 14.4 8.69997H14.3C7.4 7.79997 1.6 9.79997 0 10.4V43.8H43.7V11C41.1 11.9 34.1 13.9 26.3 12.1ZM6.6 20.7C6.6 19.4 7.7 18.3 9 18.3C10.3 18.3 11.4 19.4 11.4 20.7C11.4 22 10.3 23.1 9 23.1C7.7 23.1 6.6 22 6.6 20.7ZM11.3 37.1C10.1 37.1 9.2 36.2 9.2 35C9.2 33.8 10.1 32.9 11.3 32.9C12.5 32.9 13.4 33.8 13.4 35C13.4 36.2 12.5 37.1 11.3 37.1ZM20.7 30.3C19.6 30.3 18.8 29.4 18.8 28.4C18.8 27.4 19.7 26.5 20.7 26.5C21.7 26.5 22.6 27.4 22.6 28.4C22.6 29.4 21.7 30.3 20.7 30.3ZM25.2 38.8C24.6 38.8 24 38.3 24 37.6C24 36.9 24.5 36.4 25.2 36.4C25.9 36.4 26.4 36.9 26.4 37.6C26.4 38.3 25.8 38.8 25.2 38.8ZM25.6 21.5C24.7 21.5 24 20.8 24 19.9C24 19 24.7 18.3 25.6 18.3C26.5 18.3 27.2 19 27.2 19.9C27.2 20.8 26.5 21.5 25.6 21.5ZM35.9 19.1C36.9 19.1 37.7 19.9 37.7 20.9C37.7 21.9 36.9 22.7 35.9 22.7C34.9 22.7 34.1 21.9 34.1 20.9C34.1 19.9 34.9 19.1 35.9 19.1ZM36.9 31C36.9 32.9 35.4 34.4 33.5 34.4C31.6 34.4 30.2 32.9 30.2 31C30.2 29.1 31.7 27.6 33.6 27.6C35.5 27.6 36.9 29.2 36.9 31Z" fill="white"/>
    <path d="M32.7 11.3C33.1 11.3 33.5 11.3 33.9 11.3C35 11.3 36 11.2 36.9 11L43.7 0.3V0H39.9L32.7 11.3Z" fill="white"/>
    <path d="M25.1999 37.9C25.3656 37.9 25.4999 37.7657 25.4999 37.6C25.4999 37.4343 25.3656 37.3 25.1999 37.3C25.0342 37.3 24.8999 37.4343 24.8999 37.6C24.8999 37.7657 25.0342 37.9 25.1999 37.9Z" fill="white"/>
    <path d="M20.6999 28.8C20.9208 28.8 21.0999 28.6209 21.0999 28.4C21.0999 28.1791 20.9208 28 20.6999 28C20.479 28 20.2999 28.1791 20.2999 28.4C20.2999 28.6209 20.479 28.8 20.6999 28.8Z" fill="white"/>
    <path d="M25.6 19.8C25.7 20 25.5 20 25.6 19.8C25.7 19.8 25.7 19.8 25.6 19.8Z" fill="white"/>
    <path d="M36.2 20.9C36.2 20.8 36.1 20.6 35.9 20.6C35.7 20.6 35.6 20.7 35.6 20.9C35.6 21.2 36.2 21.2 36.2 20.9Z" fill="white"/>
</svg>
