<svg width="44" height="44" viewBox="0 0 44 44" fill="none" xmlns="http://www.w3.org/2000/svg">
    <path d="M0 19.9C3.1 18 11.9 13.9 22.3 20.7C33.4 28 42.1 22.2 43.8 21V0H0V19.9ZM32.5 10.6C35.2 10.6 37.4 12.8 37.4 15.5C37.4 18.2 35.2 20.4 32.5 20.4C29.8 20.4 27.6 18.2 27.6 15.5C27.6 12.8 29.8 10.6 32.5 10.6ZM14.3 6.8C16 6.8 17.3 8.2 17.3 9.8C17.3 11.4 15.9 12.8 14.3 12.8C12.7 12.8 11.3 11.4 11.3 9.8C11.3 8.2 12.6 6.8 14.3 6.8Z" fill="white"/>
    <path d="M32.5 18.8C34.3777 18.8 35.9 17.2778 35.9 15.4C35.9 13.5222 34.3777 12 32.5 12C30.6222 12 29.1 13.5222 29.1 15.4C29.1 17.2778 30.6222 18.8 32.5 18.8Z" fill="white"/>
    <path d="M14.3 11.3C15.1285 11.3 15.8 10.6285 15.8 9.80005C15.8 8.97162 15.1285 8.30005 14.3 8.30005C13.4716 8.30005 12.8 8.97162 12.8 9.80005C12.8 10.6285 13.4716 11.3 14.3 11.3Z" fill="white"/>
    <path d="M21.5 22C10.4 14.7 1.7 20.5 0 21.7V43.7H43.8V22.8C42 23.9 38.2 25.8 33.4 25.8C29.9 25.8 25.8 24.8 21.5 22Z" fill="white"/>
</svg>
