<svg width="40" height="40" viewBox="0 0 40 40" fill="none" xmlns="http://www.w3.org/2000/svg">
    <path d="M28.2 22.2C27.7 21.7 26.9 21.7 26.2999 22.2L22.0999 26.4C21.8999 26.6 21.7 27 21.7 27.3C21.7 27.6 21.7999 28 22.0999 28.2L32.5999 38.8C33.0999 39.3 33.9 39.3 34.5 38.8L38.7 34.6C38.9 34.4 39.0999 34 39.0999 33.7C39.0999 33.3 39 33 38.7 32.8L28.2 22.2Z" fill="white"/>
    <path d="M24.1 22.3L14.5 12.6L12.6 14.6L22.2 24.2L24.1 22.3Z" fill="white"/>
    <path d="M11 14L14 11C14.3 10.7 14.8 10.7 15.1 11L18.7 14.6L24.5 8.8C24.8 8.5 24.9 8.1 24.8 7.7C24.7 7.3 24.4 7 24 6.9L0 0L6.9 24C7 24.4 7.3 24.7 7.7 24.8C8.1 24.9 8.5 24.8 8.8 24.5L14.6 18.7L11 15.1C10.7 14.8 10.7 14.3 11 14Z" fill="white"/>
</svg>
