<svg width="44" height="44" viewBox="0 0 44 44" fill="none" xmlns="http://www.w3.org/2000/svg">
    <path d="M31.32 40.39H26.56V43.25H31.32V40.39Z" fill="white"/>
    <path d="M20.73 24.88H24.56V21.81C24.55 21.82 24.54 21.83 24.52 21.84C23.1 22.82 21.84 23.84 20.73 24.88Z" fill="white"/>
    <path d="M31.32 33.64H26.56V38.4H31.32V33.64Z" fill="white"/>
    <path d="M31.32 26.88H26.56V31.64H31.32V26.88Z" fill="white"/>
    <path d="M31.32 18.12V15.76C30.66 16.55 29.92 17.33 29.11 18.12H31.32Z" fill="white"/>
    <path d="M34.23 6.61C34.46 5.91 34.63 5.24 34.77 4.61C35.21 2.55 35.23 0.93 35.18 0H33.47C33.75 3.22 33.39 12.04 22.45 17.61C11.79 23.03 8 38.86 7.14 43.25H10.27C10.26 42.56 10.29 41.59 10.43 40.39C10.5 39.78 10.61 39.11 10.75 38.39C10.83 37.98 10.93 37.55 11.04 37.11C11.46 35.44 12.12 33.58 13.1 31.63C13.88 30.08 14.88 28.47 16.15 26.87C17.18 25.57 18.39 24.27 19.8 23C20.87 22.04 22.06 21.1 23.39 20.18C23.42 20.16 23.45 20.13 23.49 20.11C24.62 19.33 25.64 18.53 26.56 17.73C28.23 16.28 29.58 14.81 30.67 13.36C31.81 11.84 32.67 10.35 33.32 8.94C33.69 8.13 33.98 7.35 34.23 6.61Z" fill="white"/>
    <path d="M26.56 20.34V24.88H31.32V20.12H26.83C26.74 20.19 26.65 20.27 26.56 20.34Z" fill="white"/>
    <path d="M13.04 37.53V38.39H17.8V33.63H14.41C13.8 35.01 13.36 36.33 13.04 37.53Z" fill="white"/>
    <path d="M17.8 40.39H13.04V43.25H17.8V40.39Z" fill="white"/>
    <path d="M21.54 15.83C31.83 10.59 31.77 2.52 31.47 0H0V43.25H5.1C5.83 39.16 9.61 21.9 21.54 15.83Z" fill="white"/>
    <path d="M24.56 26.88H19.8V31.64H24.56V26.88Z" fill="white"/>
    <path d="M24.56 40.39H19.8V43.25H24.56V40.39Z" fill="white"/>
    <path d="M24.56 33.64H19.8V38.4H24.56V33.64Z" fill="white"/>
    <path d="M17.8 31.64V28.05C16.85 29.25 16.06 30.46 15.41 31.64H17.8Z" fill="white"/>
    <path d="M43.25 20.12H40.08V24.88H43.25V20.12Z" fill="white"/>
    <path d="M43.25 13.36H40.08V18.12H43.25V13.36Z" fill="white"/>
    <path d="M43.25 26.88H40.08V31.64H43.25V26.88Z" fill="white"/>
    <path d="M43.25 6.61H40.08V11.37H43.25V6.61Z" fill="white"/>
    <path d="M38.08 40.39H33.32V43.25H38.08V40.39Z" fill="white"/>
    <path d="M43.25 0H40.08V4.61H43.25V0Z" fill="white"/>
    <path d="M43.25 33.64H40.08V38.4H43.25V33.64Z" fill="white"/>
    <path d="M38.08 33.64H33.32V38.4H38.08V33.64Z" fill="white"/>
    <path d="M38.08 20.12H33.32V24.88H38.08V20.12Z" fill="white"/>
    <path d="M43.25 40.39H40.08V43.25H43.25V40.39Z" fill="white"/>
    <path d="M38.08 13.36H33.32V18.12H38.08V13.36Z" fill="white"/>
    <path d="M38.08 26.88H33.32V31.64H38.08V26.88Z" fill="white"/>
    <path d="M36.8 4.61H38.07V0H37.17C37.22 1.01 37.19 2.63 36.8 4.61Z" fill="white"/>
    <path d="M34.34 11.36H38.07V6.61H36.31C35.89 8.08 35.26 9.69 34.34 11.36Z" fill="white"/>
</svg>
