<svg width="170" height="29" viewBox="0 0 170 29" fill="none" xmlns="http://www.w3.org/2000/svg">
    <path opacity="0.99" d="M61.8611 7.09393H31.2708L24.5229 28.2257H61.8611V7.09393Z" fill="#2D2A26"/>
    <path d="M72.2542 3.70267C72.2542 1.47646 73.7883 0 76.0952 0C77.2833 0 78.2407 0.392183 78.9559 1.16502L78.0792 2.04166C77.664 1.51106 76.9719 1.14195 76.1068 1.14195C74.6419 1.14195 73.6729 2.16854 73.6729 3.71421C73.6729 5.25987 74.6649 6.298 76.1298 6.298C77.1103 6.298 77.7909 5.85968 78.2522 5.14452L79.1866 5.97503C78.4945 6.92088 77.4333 7.43995 76.1068 7.43995C73.7998 7.43995 72.2542 5.94043 72.2542 3.69114V3.70267Z" fill="#9E9E9E"/>
    <path d="M86.6611 0.103882L83.5236 7.35927H82.0472L82.8661 5.49064L80.2593 0.103882H81.7357L83.5698 4.02572L85.1846 0.103882H86.6611Z" fill="#9E9E9E"/>
    <path d="M92.6938 7.35927L90.8944 4.67167L89.0949 7.35927H87.4916L90.1215 3.59893L87.6877 0.103882H89.291L90.8944 2.52619L92.4977 0.103882H94.101L91.6556 3.61046L94.2971 7.37081H92.6938V7.35927Z" fill="#9E9E9E"/>
    <path d="M101.426 7.35927L101.449 2.44545L96.8808 7.35927H96.0272V0.103882H97.4114L97.3768 5.01771L101.945 0.103882H102.81V7.35927H101.426Z" fill="#9E9E9E"/>
    <path d="M110.434 6.20579V7.35927H105.417V0.103882H110.354V1.25736H106.801V3.11447H110.042V4.25641H106.801V6.21733H110.434V6.20579Z" fill="#9E9E9E"/>
    <path d="M72.254 14.0956C72.254 11.8693 73.7882 10.3929 76.0951 10.3929C77.2832 10.3929 78.2406 10.7851 78.9557 11.5579L78.0791 12.4345C77.6639 11.9039 76.9718 11.5348 76.1067 11.5348C74.6417 11.5348 73.6728 12.5614 73.6728 14.1071C73.6728 15.6528 74.6648 16.6909 76.1297 16.6909C77.1102 16.6909 77.7907 16.2526 78.2521 15.5374L79.1864 16.3679C78.4944 17.3138 77.4332 17.8328 76.1067 17.8328C73.7997 17.8328 72.254 16.3333 72.254 14.084V14.0956Z" fill="#9E9E9E"/>
    <path d="M86.1766 11.6386H83.962V17.7521H82.5778V11.6386H80.3746V10.4852H86.1766V11.6386Z" fill="#9E9E9E"/>
    <path d="M93.5589 12.8267C93.5589 14.2917 92.5323 15.2721 90.9751 15.2721H89.464V17.7406H88.0798V10.4852H91.0212C92.5553 10.4852 93.5589 11.431 93.5589 12.8267ZM92.1401 12.8729C92.1401 12.1231 91.6441 11.6271 90.8713 11.6271H89.464V14.1186H90.8713C91.6556 14.1186 92.1401 13.6226 92.1401 12.8729Z" fill="#9E9E9E"/>
    <path d="M95.1506 14.1186C95.1506 11.8809 96.6848 10.3929 98.9687 10.3929C101.253 10.3929 102.775 11.8809 102.775 14.1186C102.775 16.3564 101.241 17.8444 98.9687 17.8444C96.6963 17.8444 95.1506 16.3564 95.1506 14.1186ZM101.333 14.1186C101.333 12.573 100.387 11.5348 98.9571 11.5348C97.5268 11.5348 96.5694 12.5614 96.5694 14.1186C96.5694 15.6758 97.5268 16.7024 98.9571 16.7024C100.387 16.7024 101.333 15.6758 101.333 14.1186Z" fill="#9E9E9E"/>
    <path d="M110.353 17.7406L110.377 12.8267L105.809 17.7406H104.955V10.4852H106.339L106.305 15.399L110.873 10.4852H111.738V17.7406H110.353Z" fill="#9E9E9E"/>
    <path d="M119.443 11.6386H117.228V17.7521H115.844V11.6386H113.641V10.4852H119.443V11.6386Z" fill="#9E9E9E"/>
    <path d="M126.352 16.5986V17.7521H121.335V10.4967H126.272V11.6502H122.719V13.5073H125.96V14.6492H122.719V16.6102H126.352V16.5986Z" fill="#9E9E9E"/>
    <path d="M134.784 17.7406H133.4V11.6271H130.528L130.251 15.9527C130.17 17.0831 129.34 17.8328 128.14 17.8328V16.6217C128.544 16.6217 128.832 16.2987 128.867 15.8258L129.224 10.4736H134.784V17.729V17.7406Z" fill="#9E9E9E"/>
    <path d="M143.078 15.5951C143.078 16.8755 142.074 17.7406 140.552 17.7406H137.403V10.4852H138.787V13.4496H140.609C142.086 13.4496 143.078 14.3032 143.078 15.5951ZM141.659 15.5951C141.659 14.9837 141.174 14.58 140.482 14.58H138.787V16.5871H140.459C141.174 16.5871 141.659 16.1834 141.659 15.5836V15.5951Z" fill="#9E9E9E"/>
    <path d="M151.717 10.4852V17.7406H150.333V14.6146H146.446V17.7406H145.062V10.4852H146.446V13.4727H150.333V10.4852H151.717Z" fill="#9E9E9E"/>
    <path d="M160.011 15.5951C160.011 16.8755 159.007 17.7406 157.485 17.7406H154.336V10.4852H155.72V13.4496H157.542C159.019 13.4496 160.011 14.3032 160.011 15.5951ZM158.592 15.5951C158.592 14.9837 158.108 14.58 157.416 14.58H155.72V16.5871H157.393C158.108 16.5871 158.592 16.1834 158.592 15.5836V15.5951ZM162.353 10.4852V17.7406H160.968V10.4852H162.353Z" fill="#9E9E9E"/>
    <path d="M170 16.5986V17.7521H164.982V10.4967H169.919V11.6502H166.366V13.5073H169.608V14.6492H166.366V16.6102H170V16.5986Z" fill="#9E9E9E"/>
    <path d="M72.254 24.4769C72.254 22.2507 73.7882 20.7742 76.0951 20.7742C77.2832 20.7742 78.2406 21.1664 78.9557 21.9392L78.0791 22.8159C77.6639 22.2853 76.9718 21.9162 76.1067 21.9162C74.6417 21.9162 73.6728 22.9428 73.6728 24.4884C73.6728 26.0341 74.6648 27.0722 76.1297 27.0722C77.1102 27.0722 77.7907 26.6339 78.2521 25.9303L79.1864 26.7608C78.4944 27.7067 77.4332 28.2257 76.1067 28.2257C73.7997 28.2257 72.254 26.7262 72.254 24.4769Z" fill="#9E9E9E"/>
    <path d="M88.0451 28.1334L87.7568 23.185L85.5421 28.1334H84.7808L82.5661 23.1965L82.2777 28.1334H80.8936L81.3896 20.8434H82.9121L85.173 25.8726L87.4338 20.8434H88.9564L89.4409 28.1334H88.0567H88.0451Z" fill="#9E9E9E"/>
    <path d="M96.8347 26.98V28.1334H91.817V20.8781H96.7539V22.0315H93.2012V23.8886H96.4425V25.0306H93.2012V26.9915H96.8347V26.98Z" fill="#9E9E9E"/>
    <path d="M98.5304 24.4769C98.5304 22.2507 100.065 20.7742 102.371 20.7742C103.56 20.7742 104.517 21.1664 105.232 21.9392L104.355 22.8159C103.94 22.2853 103.248 21.9162 102.383 21.9162C100.918 21.9162 99.9492 22.9428 99.9492 24.4884C99.9492 26.0341 100.941 27.0722 102.406 27.0722C103.387 27.0722 104.067 26.6339 104.529 25.9303L105.463 26.7608C104.771 27.7067 103.71 28.2257 102.383 28.2257C100.076 28.2257 98.5304 26.7262 98.5304 24.4769Z" fill="#9E9E9E"/>
    <path d="M112.799 28.1334L112.822 23.2196L108.254 28.1334H107.401V20.8781H108.785L108.75 25.7919L113.318 20.8781H114.183V28.1334H112.799Z" fill="#9E9E9E"/>
    <path d="M0 0V21.1318H34.0508L40.7986 0H0Z" fill="#FF5100"/>
    <path d="M11.7887 10.4736L8.57052 7.0593H7.26709V14.0955H9.29722L9.26261 10.6697L12.4808 14.0955H13.7843V7.0593H11.7541L11.7887 10.4736Z" fill="white"/>
    <path d="M17.3484 11.4541H19.9552V9.62002H17.3484V8.90486H20.2436V7.0593H15.3182V14.0955H20.3128V12.25H17.3484V11.4541Z" fill="white"/>
    <path d="M29.0332 7.0593L27.9836 10.7158L26.9224 7.0593H25.146L24.0848 10.7158L23.0236 7.0593H20.8666L23.1159 14.0955H24.8807L26.0342 10.4505L27.1761 14.0955H28.9409L31.2018 7.0593H29.0332Z" fill="white"/>
    <path d="M40.3373 14.1071L39.1953 17.7521L38.0534 14.1071H36.2885L34.0277 21.1318H36.1963L37.2459 17.4752L38.3071 21.1318H40.0835L41.1447 17.4752L42.1944 21.1318H44.3629L42.1021 14.1071H40.3373Z" fill="white"/>
    <path d="M47.1543 14.1071H45.1241V21.1433H47.1543V14.1071Z" fill="white"/>
    <path d="M52.4026 17.4868L54.6288 14.1071H52.2757L51.2607 15.745L50.2456 14.1071H47.881L50.1187 17.4983L47.7426 21.1318H50.1072L51.2607 19.2516L52.4257 21.1318H54.7903L52.4026 17.4868Z" fill="white"/>
</svg>
