<svg width="1230" height="606" viewBox="0 0 1230 606" fill="none" xmlns="http://www.w3.org/2000/svg">
    <path d="M1229.94 345.056C1229.51 340.231 1229.51 335.406 1228.5 330.842C1227.79 327.06 1226.64 323.017 1224.2 320.148C1218.75 313.628 1218.04 309.977 1222.91 302.674C1220.19 299.805 1217.46 296.806 1214.6 293.937C1210.15 289.372 1210.3 284.547 1214.17 279.853C1218.18 274.767 1217.46 272.811 1210.73 270.724C1204.71 268.899 1196.82 258.205 1196.96 252.728C1199.54 252.989 1202.12 253.119 1204.85 253.38C1204.99 252.728 1205.28 251.946 1205.42 251.294C1202.84 249.598 1199.69 246.077 1197.68 246.469C1190.37 247.903 1187.79 244.252 1185.35 239.557C1183.2 235.384 1179.76 234.471 1176.75 238.123C1173.17 242.687 1171.59 240.34 1169.73 237.21C1166.29 231.081 1162.84 224.821 1159.4 218.562C1155.39 211.259 1156.25 208.129 1162.99 203.434C1161.98 199.392 1160.84 195.219 1159.55 190.263C1162.84 192.089 1165.14 193.393 1168.15 195.088C1168.44 182.961 1164.85 169.137 1184.06 170.181C1182.05 159.357 1180.05 149.055 1178.47 138.622C1177.18 130.016 1177.04 121.278 1175.6 112.671C1175.03 109.02 1172.88 105.629 1171.16 101.326C1173.17 100.022 1176.75 98.1963 1179.76 95.7185C1181.19 94.5449 1183.06 92.0671 1182.63 90.8935C1182.05 89.1982 1179.47 87.2421 1177.61 86.9813C1172.16 86.0684 1166.72 86.0684 1161.27 85.5468C1153.1 84.7644 1146.93 87.6333 1142.06 93.5016C1141.34 94.284 1139.48 94.8057 1138.47 94.5449C1137.47 94.2841 1135.75 92.5888 1136.04 92.0671C1137.04 89.8502 1138.04 86.8509 1140.05 85.8076C1148.22 81.6346 1145.35 75.1143 1144.06 69.6372C1143.49 66.8986 1138.9 63.5081 1135.61 62.9864C1126.43 61.552 1125.86 61.552 1128.58 53.4668C1133.03 54.7708 1137.47 56.0749 1142.63 57.6397C1143.06 55.5532 1144.06 53.2059 1144.06 50.989C1144.35 44.3383 1146.22 42.3822 1153.24 42.7734C1161.7 43.295 1165.43 36.9051 1171.3 33.5145C1172.31 32.8625 1172.16 30.776 1173.02 29.7327C1174.17 28.1678 1175.6 26.9942 1176.46 26.0813C1168.87 22.9516 1162.56 20.4738 1157.83 18.5177C1157.25 15.1272 1156.68 12.3886 1156.11 8.86764C1158.97 5.60747 1158.83 4.95545 1151.81 0C1137.18 7.04196 1137.18 7.04195 1130.02 22.6908C1133.03 23.9948 1136.04 25.2989 1139.19 26.603C1139.05 27.3854 1138.9 28.0375 1138.76 28.8199C1135.03 28.5591 1131.02 29.0807 1127.72 27.907C1118.55 24.386 1111.38 26.3422 1103.49 31.428C1092.03 38.7308 1079.41 44.7295 1067.08 50.8586C1061.2 53.7276 1056.04 56.9877 1053.46 62.7256C1050.6 69.246 1046.44 74.723 1039.41 78.1136C1037.98 78.7656 1037.12 80.2001 1035.83 81.3738C1038.41 85.0252 1040.27 88.2853 1046.29 87.3725C1048.73 86.9813 1052.46 89.9806 1054.61 92.3279C1055.47 93.2408 1053.61 98.1962 1052.6 98.1962C1046.72 98.7179 1040.7 104.065 1034.83 98.0658C1034.11 97.2834 1032.39 97.153 1031.67 96.8922C1030.81 101.196 1031.53 106.933 1028.95 108.759C1022.07 113.584 1017.91 119.713 1013.47 126.234C1009.02 132.884 1002.14 132.754 995.402 128.581C992.248 126.625 986.657 125.19 983.79 126.364C974.185 130.407 965.87 136.275 962.86 146.447C961.283 151.793 958.416 153.228 952.395 151.402C948.954 150.359 944.653 151.924 940.783 152.315C939.349 152.445 937.772 152.576 936.338 152.837C934.905 152.967 933.328 153.228 931.894 153.358C931.894 152.837 932.038 152.315 932.038 151.793C932.038 151.272 932.181 150.75 932.181 150.098C932.324 148.924 932.468 147.49 932.611 145.664C927.594 147.229 922.433 147.62 919.565 150.229C917.702 151.793 919.852 156.749 919.422 160.009C918.992 162.617 917.272 165.095 916.125 167.573C915.551 167.312 914.835 167.051 914.261 166.79C913.975 164.704 913.688 162.617 913.258 159.618C910.247 160.661 907.667 161.443 905.23 162.356C904.8 162.096 904.226 161.835 903.796 161.574C905.373 159.096 906.95 156.749 908.527 154.271C908.24 153.75 908.097 153.358 907.81 152.837C899.782 156.227 891.754 159.618 883.869 163.139C884.443 163.53 885.016 163.921 885.733 164.443C884.729 166.921 883.583 169.398 882.866 172.006C882.436 173.18 882.722 174.615 882.722 175.919C890.034 175.919 887.597 183.482 892.614 185.699C888.17 188.177 879.999 187.525 885.159 196.523C879.425 196.001 875.124 195.61 870.394 195.088C869.39 197.305 868.387 199.914 867.24 202.522C862.509 202 858.208 201.478 853.047 200.957C853.047 207.477 853.047 213.215 853.047 219.083C840.432 220.257 835.988 210.868 827.816 205.782C829.823 204.087 831.257 202.782 832.977 201.348C830.397 197.697 828.246 193.915 825.092 191.046C822.799 188.959 819.215 187.134 816.204 186.873C810.47 186.482 804.592 187.394 797.998 187.655C797.998 187.786 797.424 189.351 797.568 190.785C798.571 198.609 793.84 202.261 786.386 203.956C785.525 204.217 784.522 204.608 783.805 204.999C777.928 207.868 773.483 207.216 770.903 201.087C770.616 200.305 769.183 199.522 768.322 199.522C760.151 199.783 750.403 196.132 746.675 207.086C744.812 204.608 743.235 202.652 742.231 201.478C729.903 207.738 718.434 213.606 706.965 219.475C707.108 216.214 708.112 213.085 710.262 211.128C719.151 203.174 727.035 194.567 732.483 184.265C738.934 172.006 738.791 168.616 729.616 159.096C722.734 151.924 716.14 151.663 708.255 158.183C707.108 159.096 705.388 159.227 702.951 160.139C704.098 156.227 704.815 153.489 705.675 150.62C702.521 150.098 699.797 149.577 697.073 149.055C697.647 148.533 698.077 147.881 698.65 147.36C697.36 145.403 696.5 142.143 694.636 141.622C692.343 140.97 688.042 141.491 686.752 143.056C682.164 148.272 676.143 153.358 679.727 161.183C676.286 161.704 673.563 162.096 670.409 162.487C671.412 164.704 672.272 166.399 672.846 167.703C669.979 168.355 667.685 169.268 665.248 169.529C662.381 169.79 659.37 169.79 656.503 169.137C652.489 168.225 648.762 166.79 642.741 164.834C645.464 172.789 640.733 172.528 636.719 173.311C633.279 173.963 629.982 175.136 626.828 176.31C622.814 177.744 618.513 179.048 614.929 181.135C612.062 182.7 608.621 185.047 607.904 187.655C606.758 191.828 607.618 196.523 607.618 202.391C602.314 201.87 596.006 201.478 589.841 200.566C571.922 197.957 571.778 200.174 571.922 215.432C571.922 217.518 573.929 219.475 575.219 221.431C577.083 224.3 579.233 226.908 581.24 229.907C572.925 233.037 570.775 228.342 567.907 223.908C566.331 221.431 563.607 218.822 560.883 218.04C556.009 216.866 552.281 218.953 551.708 224.56C549.128 222.865 547.121 221.561 545.114 220.257C538.806 228.212 554.289 230.298 549.414 237.992C546.404 235.514 543.393 233.167 540.383 230.689C535.652 226.908 535.795 222.995 539.092 218.04C541.53 214.519 542.39 210.216 543.967 206.173C539.236 209.303 536.655 213.606 532.641 215.954C527.767 218.692 524.757 221.822 525.617 226.777C526.907 234.862 523.61 241.383 518.879 248.034C516.299 251.555 516.012 256.51 514.578 260.944C535.509 263.552 539.809 272.42 529.201 287.547C530.634 289.112 532.211 290.937 534.075 293.024C531.064 293.415 528.914 293.806 526.907 294.067C523.466 288.72 523.753 284.026 527.767 279.722C531.351 275.941 530.921 271.376 527.767 268.507C525.617 266.551 520.026 265.378 517.445 266.551C514.578 267.855 512.141 272.028 511.854 275.158C511.281 279.983 509.991 284.156 505.547 286.895C499.239 290.937 492.788 294.719 485.907 299.023C480.316 293.676 469.564 293.415 466.267 282.983C472.144 285.069 476.301 287.547 480.459 287.938C490.207 288.72 506.263 272.159 505.833 263.161C505.69 259.509 506.693 255.597 507.697 251.946C510.851 241.252 520.599 232.385 518.019 220.127C517.875 219.344 519.022 218.301 519.739 217.388C529.201 207.086 529.344 205.651 523.753 196.262C525.33 192.611 527.194 190.263 527.05 188.177C526.907 186.873 523.61 185.83 520.743 184.265C520.313 188.307 520.169 190.394 520.026 192.48C515.152 194.436 510.994 197.045 507.697 200.435C502.679 205.651 498.379 211.389 489.921 212.563C487.77 212.824 486.05 215.171 484.043 216.475C489.49 224.3 488.344 226.777 474.581 234.471C486.193 237.992 477.305 247.512 483.326 253.119C480.602 255.336 478.452 257.032 475.585 259.379C474.438 257.292 473.291 255.858 472.718 254.293C468.56 241.774 460.962 231.081 451.357 221.691C449.207 219.474 444.906 219.083 441.609 217.779C440.605 220.126 439.745 222.735 438.455 224.952C437.165 227.038 435.731 229.516 433.581 230.559C431 231.863 427.56 231.733 423.689 232.385C425.696 228.473 426.986 226.125 428.277 223.647C421.825 222.865 415.948 223.256 411.36 221.17C406.916 219.214 403.189 217.518 398.028 218.04C395.734 218.301 393.154 216.475 390.86 215.693C394.587 212.563 397.455 210.346 400.322 207.999C399.892 207.216 399.318 206.303 398.888 205.521C394.874 206.043 391.003 206.564 385.842 207.216C377.528 202.522 366.489 201.87 355.594 201.348C352.87 201.218 350.29 203.826 347.422 204.738C345.559 205.391 342.405 206.043 341.401 205.13C339.538 203.695 338.534 201.218 337.961 198.87C337.387 196.523 337.817 193.915 337.817 189.742C342.835 190.524 347.279 191.307 352.153 192.089C357.744 184.395 356.311 179.048 346.706 172.658C336.671 182.961 326.635 193.263 316.744 203.434C316.17 203.174 315.453 202.913 314.88 202.652C314.737 201.218 313.877 199.392 314.593 198.349C317.747 193.654 313.59 190.394 310.723 189.481C305.275 187.916 299.111 188.177 293.233 187.786C288.215 187.525 284.631 189.22 283.341 194.176C282.768 196.393 281.334 198.479 279.901 201.348C271.873 194.697 270.152 186.742 270.726 178.266C260.547 178.266 258.397 181.265 261.981 189.481C262.698 191.046 261.264 193.393 260.691 195.61C248.218 191.828 252.376 182.178 251.229 175.788C250.512 172.006 257.25 165.617 262.268 162.748C267.285 159.879 270.009 156.749 270.869 151.793C271.729 146.838 272.733 142.013 273.593 137.057C274.166 137.057 274.883 137.188 275.456 137.188C275.743 140.709 275.457 144.23 276.46 147.49C278.754 155.054 281.621 162.617 284.058 170.181C285.922 176.049 298.25 183.613 304.845 182.83C315.023 181.526 322.478 169.79 320.328 159.357C318.894 152.576 319.037 145.664 317.747 138.753C316.744 133.276 314.737 128.059 313.16 122.713C312.156 119.453 310.866 116.323 309.576 113.063C310.149 112.802 310.723 112.671 311.296 112.411C313.016 113.323 314.88 114.367 317.604 115.801C317.317 113.584 317.46 112.541 317.03 111.759C313.303 104.456 294.81 97.6746 287.069 101.456C282.481 103.673 276.89 105.108 276.46 112.15C276.173 116.975 272.446 121.8 264.705 121.017C262.698 120.887 259.83 122.321 258.253 123.886C253.093 128.972 249.795 135.753 240.907 136.927C234.169 137.84 228.578 142.665 227.718 147.751C226.571 154.793 222.557 153.489 217.54 152.967C216.68 156.618 215.246 160.009 215.103 163.4C214.959 170.442 210.802 171.354 204.207 170.702C194.746 169.79 185.284 169.398 175.679 169.268C165.357 169.138 163.064 171.354 162.777 180.744C162.777 181.265 162.06 181.657 161.773 182.178C157.759 179.57 153.745 176.962 149.875 174.484C150.018 175.136 150.305 175.788 150.448 176.31C136.829 175.006 128.514 184.395 117.762 188.698C110.308 191.698 105.29 200.174 99.2691 206.173C98.839 206.695 99.1257 207.868 99.2691 208.781C99.5558 212.563 103.713 216.214 99.4125 220.127C99.1258 220.387 100.129 222.083 100.989 222.735C107.584 228.081 107.297 230.689 99.6991 235.123C92.3879 239.427 89.3773 246.077 88.2305 253.641C87.6571 257.292 87.0837 260.813 86.5103 264.465C85.6501 264.856 84.7899 265.247 83.9297 265.638C80.3458 262.9 76.7619 260.161 72.8912 257.162C69.7373 260.161 65.5799 263.813 61.8526 267.855C61.4225 268.377 62.5694 270.855 63.5729 271.768C66.2967 273.984 69.3072 275.81 72.3177 277.766C72.031 278.157 71.7443 278.549 71.3142 278.94C73.8947 279.462 76.6185 279.983 81.4927 280.896C76.7619 285.069 73.3213 287.808 70.4541 290.937C68.3037 293.415 62.1393 294.719 65.8666 299.544C69.1639 303.717 67.8736 306.977 65.2932 310.629C64.1463 312.324 62.426 315.063 63.1428 316.236C65.4365 319.888 68.7338 323.017 71.601 326.408C72.6045 327.582 73.3212 328.886 73.8946 330.19C75.7583 335.015 77.4787 339.84 79.0556 344.795C80.6325 349.49 82.0661 354.315 82.9263 356.923C73.7514 363.313 66.7268 368.269 59.7022 373.094C50.814 363.704 43.9328 362.922 38.3418 370.355C41.4957 372.311 44.7929 374.137 47.9468 376.093C47.6601 376.745 47.23 377.527 46.9433 378.179C40.3488 376.615 33.8977 374.919 27.0165 373.224C26.8732 374.267 26.4431 376.484 26.1563 377.919C20.422 378.44 15.2611 378.962 9.52681 379.614C8.37994 378.049 6.51623 375.702 3.64906 371.92C2.21548 375.31 1.35536 377.397 0.638572 379.483C-1.22509 384.569 1.49874 389.003 2.35889 393.698C3.79247 401.913 2.78891 410.39 2.93227 418.866C2.93227 420.562 3.64913 422.518 4.796 423.691C6.65966 425.778 9.81351 427.082 11.3904 429.299C15.6912 435.689 16.9815 443.904 24.1494 448.86C25.1529 449.512 24.8662 451.729 25.583 453.033C27.8767 458.64 26.013 465.552 34.7578 469.073C38.0551 470.507 38.7719 477.68 40.2054 482.244C41.0656 485.504 40.7789 489.025 41.4957 492.285C42.3558 496.328 43.6461 500.371 44.6496 504.413C45.5097 507.804 46.2265 511.325 47.23 515.237C50.814 513.802 52.3909 512.498 54.1112 512.498C63.2861 512.368 62.8561 512.368 63.7162 503.761C64.433 496.589 63.1428 488.504 70.7408 483.418C76.3318 479.636 77.192 474.811 77.192 469.073C77.192 467.117 77.7653 463.857 78.9122 463.465C84.9332 461.77 91.241 459.944 97.4054 459.684C104.573 459.423 111.741 460.857 117.189 461.379C119.483 457.728 120.486 455.38 122.206 453.555C127.367 447.947 125.934 434.776 118.909 430.473C120.773 428.125 122.78 425.908 124.5 423.691C123.21 421.474 122.206 419.649 120.916 417.562C125.504 415.476 131.811 414.563 133.388 411.564C136.256 405.826 141.13 405.043 146.291 403.739C151.882 402.305 154.749 404.782 154.462 409.868C154.319 412.085 154.462 414.432 154.462 416.649C155.322 416.91 156.182 417.041 156.899 417.301C158.619 415.606 160.053 413.911 161.917 412.476C163.494 411.172 165.357 409.347 167.364 409.086C176.683 407.912 186.001 407.13 194.602 406.347C195.463 409.607 196.179 412.737 197.183 416.389C203.347 414.041 207.935 413.259 206.358 420.822C206.214 421.344 207.361 422.126 207.935 422.779C209.798 425.517 212.522 428.125 213.382 431.125C214.386 434.776 213.956 438.819 214.242 443.774C220.694 439.601 222.987 442.079 223.991 447.295C224.564 450.294 226.141 451.468 230.155 450.164C235.316 448.469 239.904 449.382 242.054 454.989C242.484 456.032 245.065 457.336 246.355 457.076C253.093 455.38 255.386 458.249 255.386 463.857C255.386 468.812 257.537 472.072 263.414 472.724C265.708 472.985 268.002 474.289 270.296 474.811C273.736 475.463 277.75 477.158 280.474 476.115C284.488 474.55 285.635 470.899 282.911 466.856C281.191 464.378 280.187 461.379 278.324 457.858C280.904 456.945 283.198 456.163 285.348 455.119C286.925 454.467 289.219 453.815 289.506 452.642C291.513 446.904 295.097 447.034 299.971 449.382C301.261 450.034 302.838 449.903 304.272 450.034C304.128 448.73 304.128 447.295 303.698 445.991C303.268 444.556 301.548 443.122 301.691 441.948C302.121 439.471 302.838 436.732 304.558 434.906C305.132 434.254 308.716 435.689 310.866 436.341C313.733 437.123 316.314 438.427 319.181 439.079C330.793 441.427 342.261 443.774 354.017 445.6C363.048 447.034 372.08 451.598 381.685 446.513C383.405 445.6 387.563 448.338 390.287 449.773C392.58 450.946 394.874 452.25 396.738 453.946C398.458 455.511 400.608 457.728 400.465 459.553C400.178 462.683 398.028 465.813 397.168 468.943C396.881 470.247 397.311 472.594 398.315 473.116C403.189 475.854 408.493 477.941 413.511 480.418C414.944 481.07 416.234 482.114 417.381 482.896C415.231 485.504 413.941 487.199 411.79 489.938C417.668 489.938 422.542 491.242 426.126 489.677C433.437 486.678 440.319 485.765 446.34 486.939C446.913 490.329 446.626 493.068 448.06 495.024C452.791 501.414 455.801 508.195 457.235 515.889C459.385 527.234 462.252 538.319 465.263 551.229C469.134 548.751 472.144 546.926 476.015 544.448C476.875 546.143 477.305 548.23 478.595 548.882C483.326 551.36 488.63 555.663 493.218 555.272C503.396 554.229 506.837 555.402 508.557 565.052C508.844 566.878 509.561 568.704 510.708 570.269C512.858 573.268 515.438 575.876 518.879 580.049C519.022 580.049 520.456 580.31 521.746 580.831C523.18 581.484 524.327 582.527 525.76 583.44C528.054 582.527 530.204 581.614 532.641 580.701C533.215 581.875 533.645 582.788 534.075 583.7C538.662 592.959 540.096 593.22 549.701 588.265C550.991 587.613 552.998 587.873 554.575 587.613C556.726 587.221 558.876 587.091 560.74 586.309C570.058 582.657 579.519 579.136 588.551 574.833C599.59 569.486 608.621 576.267 618.656 577.702C619.373 577.832 620.233 578.875 620.377 579.527C621.094 585.787 626.398 585.787 631.272 586.7C637.723 587.743 644.174 589.699 650.625 590.09C653.779 590.221 658.08 588.265 660.087 585.917C661.951 583.701 662.811 579.006 661.377 576.919C657.937 571.703 657.363 567.66 661.951 563.096C664.531 560.488 666.825 557.619 669.405 554.75C674.423 556.576 679.154 558.532 684.171 560.097C689.332 561.662 694.923 562.314 699.941 564.139C702.091 564.922 704.098 567.4 704.815 569.486C708.829 581.484 720.584 585.787 732.626 579.267C735.063 577.963 737.931 575.876 740.224 576.267C750.116 577.832 759.864 580.179 769.613 582.266C770.186 582.396 771.046 582.918 771.333 583.309C773.77 589.569 779.791 588.786 785.095 589.178C791.26 589.569 797.854 591.003 803.445 589.569C811.187 587.613 818.354 583.44 825.809 579.919C826.813 579.397 827.243 577.832 827.959 576.789C834.411 566.226 844.446 564.139 854.768 568.834C863.512 561.531 872.974 569.617 880.429 568.052C884.729 563.227 888.17 559.184 891.754 555.011C889.317 544.97 889.317 534.798 897.058 525.539C897.775 524.757 897.775 523.061 897.632 522.018C896.771 517.063 893.761 513.933 887.74 514.194C890.32 504.674 898.062 500.371 906.233 496.719C911.107 494.633 915.121 490.329 922.003 492.285C926.59 493.589 931.751 492.937 936.625 493.589C939.779 493.981 943.793 494.502 945.8 496.328C957.986 507.021 969.741 518.236 981.783 529.06C983.217 530.364 985.797 532.451 986.657 531.929C991.818 529.582 996.979 530.886 1002.28 530.886C1010.88 530.886 1018.77 530.495 1023.64 538.971C1025.22 541.84 1030.38 545.883 1032.39 545.23C1037.69 543.666 1043.14 540.666 1046.58 536.754C1051.89 530.755 1056.19 524.105 1066.79 520.323C1067.65 525.8 1068.23 530.364 1068.94 534.928C1069.23 536.363 1069.66 537.797 1069.81 539.362C1070.52 544.057 1071.38 548.621 1071.81 553.316C1072.39 560.358 1072.53 567.53 1072.82 575.094C1070.52 575.354 1066.79 576.006 1062.92 575.876C1055.9 575.615 1056.19 581.223 1054.32 584.744C1053.61 586.309 1055.04 589.438 1056.62 591.134C1061.2 596.22 1066.22 600.914 1071.24 606C1074.82 600.132 1082.13 600.001 1089.73 600.523C1091.31 600.653 1093.17 600.262 1094.46 599.48C1104.21 593.742 1110.23 585.917 1111.24 575.094C1112.38 564.139 1113.24 552.924 1115.68 542.101C1117.4 534.015 1117.83 526.321 1116.68 518.367C1115.82 512.629 1115.39 506.63 1116.25 501.023C1117.83 490.851 1115.97 481.853 1110.66 472.855C1103.21 460.205 1094.32 447.947 1093.75 431.777C1097.9 434.515 1102.63 436.341 1105.07 439.601C1112.53 449.642 1118.98 460.336 1125.86 470.638C1126.72 471.942 1127.72 473.246 1129.16 474.028C1136.18 478.201 1135.61 488.112 1144.64 490.72C1145.07 490.851 1144.92 491.894 1145.21 492.546C1147.22 496.458 1149.37 500.371 1151.38 504.413C1152.09 504.283 1152.67 504.022 1153.38 503.892C1153.38 500.11 1153.38 496.458 1153.38 492.025C1157.83 491.894 1161.84 491.633 1165.86 491.503C1165 485.895 1160.98 485.113 1155.53 484.2C1144.06 482.374 1133.74 469.855 1133.17 458.249C1133.17 456.815 1135.46 454.467 1137.18 453.946C1140.48 452.772 1144.21 452.511 1149.08 451.729C1141.2 446.904 1134.03 443.122 1127.58 438.297C1119.26 432.168 1109.09 426.56 1104.35 418.475C1097.9 407.391 1087.01 401.131 1078.26 392.524C1074.39 394.611 1073.1 396.436 1077.26 399.436C1080.27 401.522 1082.71 404.391 1085.57 407.13C1077.4 411.433 1077.98 411.042 1083.42 416.78C1087.01 420.562 1089.02 425.778 1092.46 431.777C1084.28 429.038 1077.12 428.125 1081.13 419.518C1063.78 413.78 1048.73 411.433 1046.58 434.906C1044.29 432.95 1043 431.907 1041.71 430.733C1039.84 432.298 1038.12 433.733 1036.12 435.428C1034.54 431.646 1033.25 428.516 1032.1 425.778C1026.51 427.212 1021.35 428.516 1016.19 429.821C1015.62 429.168 1014.9 428.516 1014.33 427.864C1015.33 424.083 1015.76 419.91 1017.62 416.389C1029.81 393.828 1028.09 369.051 1030.81 345.056C1031.39 339.579 1032.39 335.797 1036.69 332.276C1039.99 329.668 1042.57 326.538 1046.01 324.191C1049.45 321.844 1053.46 320.148 1057.76 317.932C1058.77 309.716 1069.52 309.716 1074.97 304.63C1074.68 301.892 1074.25 299.153 1073.96 296.545C1077.98 294.719 1081.56 293.285 1085.14 291.459C1088.3 289.894 1091.31 288.199 1094.32 286.634C1094.75 287.156 1095.32 287.677 1095.75 288.199C1094.03 291.198 1089.59 294.719 1097.19 296.675C1105.36 289.894 1103.21 276.462 1115.82 272.811C1111.67 265.638 1108.94 271.116 1104.5 273.072C1103.35 269.681 1101.92 266.812 1101.34 263.943C1099.77 256.119 1097.9 248.164 1097.47 240.209C1097.19 235.384 1098.05 229.777 1100.48 225.473C1103.06 221.039 1108.23 217.649 1112.53 213.737C1114.1 215.432 1115.25 216.997 1116.68 218.562C1118.98 221.039 1120.55 225.864 1125.14 222.995C1127.01 221.822 1126.57 217.388 1126.86 214.519C1127.01 212.824 1126 211.128 1126 209.433C1126 206.173 1126.29 202.913 1126.57 198.218C1124.57 195.74 1119.69 191.959 1118.83 187.525C1117.69 182.178 1122.27 178.657 1129.01 178.657C1123.85 189.351 1124.14 189.351 1136.04 196.001C1138.76 197.566 1141.77 202.13 1141.2 204.478C1139.05 212.302 1140.62 219.475 1142.63 227.038C1145.5 237.731 1147.22 248.686 1149.08 259.64C1149.51 261.857 1148.65 264.334 1148.08 266.682C1146.93 271.376 1144.21 275.941 1148.94 280.635C1150.95 282.591 1151.23 286.112 1152.24 288.851C1153.24 291.459 1153.53 294.458 1155.25 296.545C1164.56 306.977 1174.46 316.888 1187.65 323.8C1196.39 328.364 1204.42 333.841 1212.73 338.927C1218.18 342.187 1223.77 345.578 1229.94 349.36C1229.94 347.143 1230.08 346.099 1229.94 345.056ZM187.865 197.957C186.431 199.001 183.707 199.653 182.13 199.131C177.686 197.697 173.672 195.61 169.228 193.654C172.382 187.003 181.557 183.873 178.976 174.223C182.99 174.223 186.718 173.702 190.158 174.354C192.022 174.745 194.889 177.484 194.602 178.396C192.739 185.178 194.746 193.002 187.865 197.957ZM228.292 196.653C224.851 202.391 220.55 207.738 216.393 213.085C213.812 216.345 209.368 215.823 206.358 213.345C208.221 209.824 211.089 206.825 211.089 203.826C211.232 196.393 217.396 193.002 222.127 188.568C222.987 187.786 227.145 188.568 227.718 189.481C228.578 191.698 229.295 194.828 228.292 196.653ZM777.497 513.672C777.641 515.107 777.211 516.671 776.494 517.975C773.483 523.713 771.046 529.842 767.032 534.928C763.305 539.493 758.287 543.796 752.696 546.535C749.542 548.099 748.396 549.273 747.392 552.012C745.529 557.098 733.056 562.835 727.179 561.531C725.888 561.271 724.885 559.836 723.738 558.923C724.598 558.01 725.458 556.706 726.605 556.315C746.102 550.708 752.696 534.537 760.868 520.192C765.169 512.629 766.602 503.761 769.183 495.545C769.469 494.502 769.469 493.198 770.186 492.416C771.62 490.851 773.34 489.677 774.917 488.243C776.064 489.808 777.211 491.503 778.358 493.068C777.641 493.329 776.924 493.459 776.207 493.72C776.494 500.371 777.067 507.021 777.497 513.672Z" fill="#FF4E20"/>
</svg>
