<svg xmlns="http://www.w3.org/2000/svg" display="none">

    <symbol id="mail" viewBox="0 0 18 13">
        <path d="M15.3871 0H2.6129C1.92015 0.000761937 1.256 0.273964 0.76615 0.759666C0.276302 1.24537 0.000768441 1.9039 0 2.59079V10.4092C0 11.8376 1.17232 13 2.6129 13H15.3871C16.8277 13 18 11.8376 18 10.4092V2.59079C18 1.1624 16.8277 0 15.3871 0ZM14.6148 1.72719L9.54 5.69973C9.22064 5.9473 8.77935 5.9473 8.46 5.69973L4.33742 2.46988L3.3869 1.72719H14.6148ZM15.3871 11.2728H2.6129C2.13271 11.2728 1.74194 10.8853 1.74194 10.4092V2.64548L7.38 7.05846C7.85613 7.43268 8.43097 7.61692 9 7.61692C9.56903 7.61692 10.1439 7.43268 10.62 7.05846L16.2581 2.64721V10.4092C16.2581 10.8853 15.8673 11.2728 15.3871 11.2728Z"/>
    </symbol>

    <symbol id="phone" viewBox="0 0 13 23">
        <path d="M10.5 0H2.5C1.12 0 0 1.17091 0 2.61364V20.3864C0 21.8291 1.12 23 2.5 23H10.5C11.88 23 13 21.8291 13 20.3864V2.61364C13 1.17091 11.88 0 10.5 0ZM6.5 21.9545C5.67 21.9545 5 21.2541 5 20.3864C5 19.5186 5.67 18.8182 6.5 18.8182C7.33 18.8182 8 19.5186 8 20.3864C8 21.2541 7.33 21.9545 6.5 21.9545ZM11 17.7727H2V3.13636H11V17.7727Z"/>
    </symbol>

    <symbol id="location" viewBox="0 0 13 17" fill="none" xmlns="http://www.w3.org/2000/svg">
        <path fill-rule="evenodd" clip-rule="evenodd"
              d="M6.5 17C6.5 17 13 9.67591 13 6.23333C13 2.79076 10.0899 0 6.5 0C2.91015 0 0 2.79076 0 6.23333C0 9.67591 6.5 17 6.5 17ZM6.5 10.2C8.78445 10.2 10.6364 8.42406 10.6364 6.23333C10.6364 4.0426 8.78445 2.26667 6.5 2.26667C4.21555 2.26667 2.36364 4.0426 2.36364 6.23333C2.36364 8.42406 4.21555 10.2 6.5 10.2Z"
              fill="white"/>
    </symbol>

    <symbol id="download" viewBox="0 0 32 27">
        <path fill-rule="evenodd" clip-rule="evenodd"
              d="M16 0C16.741 -3.15941e-07 17.3417 0.593291 17.3417 1.32515L17.3417 15.9161L22.7594 10.5653C23.2834 10.0478 24.1329 10.0478 24.6569 10.5653C25.1809 11.0828 25.1809 11.9218 24.6569 12.4393L16.9487 20.0523C16.6971 20.3009 16.3558 20.4405 16 20.4405C15.6441 20.4405 15.3029 20.3009 15.0513 20.0523L7.34308 12.4393C6.8191 11.9218 6.8191 11.0828 7.34307 10.5653C7.86705 10.0478 8.71658 10.0478 9.24055 10.5653L14.6583 15.9161L14.6583 1.32515C14.6583 0.593292 15.259 3.15941e-07 16 0ZM1.34172 15.8223C2.08273 15.8223 2.68344 16.4156 2.68344 17.1475V24.3497H29.3166V17.1475C29.3166 16.4156 29.9173 15.8223 30.6583 15.8223C31.3993 15.8223 32 16.4156 32 17.1475V25.6748C32 26.4067 31.3993 27 30.6583 27H1.34172C0.600708 27 0 26.4067 0 25.6748V17.1475C0 16.4156 0.600708 15.8223 1.34172 15.8223Z"/>
    </symbol>

    <symbol id="play" viewBox="0 0 50 50">
        <path fill-rule="evenodd" clip-rule="evenodd"
              d="M25 2.65393C12.6586 2.65393 2.65393 12.6586 2.65393 25C2.65393 37.3414 12.6586 47.3461 25 47.3461C37.3414 47.3461 47.3461 37.3414 47.3461 25C47.3461 12.6586 37.3414 2.65393 25 2.65393ZM0 25C0 11.1929 11.1929 0 25 0C38.8071 0 50 11.1929 50 25C50 38.8071 38.8071 50 25 50C11.1929 50 0 38.8071 0 25Z"/>
        <path d="M16.8524 17.0117V33.0149C16.8524 34.4215 18.3917 35.3238 19.6125 34.6072L33.5987 26.6189C34.846 25.9024 34.846 24.1242 33.5987 23.4342L19.6125 15.4459C18.3917 14.7559 16.8524 15.6317 16.8524 17.0382V17.0117Z"/>
    </symbol>

    <symbol id="category-icon10" viewBox="0 0 46 46">
        <path d="M5.86074 34.6825H0V45.0021C0 45.5522 0.447831 46 0.997884 46H6.93651V35.7583C6.93651 35.1644 6.45461 34.6825 5.86074 34.6825Z"/>
        <path d="M16.7937 27.7655V18.6385C16.7937 18.0447 16.3118 17.5628 15.7179 17.5628H0V28.8413H15.7179C16.3118 28.8413 16.7937 28.3594 16.7937 27.7655Z"/>
        <path d="M17.1441 7.17503C16.6379 6.79534 16.2047 6.46434 15.8396 6.16254C13.5469 4.26899 13.6053 1.45545 13.8243 0H0.997884C0.447831 0 0 0.447831 0 0.997883V11.8042H22.3331C20.6732 9.84741 18.6775 8.33354 17.1441 7.17503Z"/>
        <path d="M45.0021 0H15.309C15.124 1.06116 14.9342 3.5145 16.7693 5.03323C17.11 5.31556 17.5335 5.63683 18.0252 6.00677C21.4374 8.59153 27.785 13.396 26.8893 21.2574C25.9693 29.328 25.1953 38.2165 27.7168 41.5412C29.6688 44.1113 30.6423 45.4499 31.0415 46H45.0021C45.5522 46 46 45.5522 46 45.0021V0.997883C46 0.447831 45.5522 0 45.0021 0ZM23.4429 8.92254L23.0487 8.62561C20.8923 7.01439 18.4535 5.18413 17.8353 2.25862C17.7526 1.86434 18.0057 1.47492 18.4 1.39217C18.7943 1.30942 19.1837 1.56254 19.2664 1.95683C19.7678 4.34201 21.8853 5.92402 23.9249 7.45249L24.324 7.75429C26.7287 9.56508 29.0068 12.3981 30.2772 15.1484C30.4476 15.5134 30.287 15.9467 29.9219 16.117C29.8245 16.1608 29.7175 16.1852 29.6152 16.1852C29.3378 16.1852 29.0749 16.0294 28.9532 15.7617C27.7801 13.2159 25.6675 10.597 23.4478 8.92254H23.4429ZM32.8863 44.6662C32.7549 44.7685 32.5943 44.8171 32.4385 44.8171C32.2195 44.8171 32.0053 44.7198 31.8592 44.5348C28.8948 40.699 27.7363 36.873 28.1062 32.1221C28.2474 30.2967 28.5638 28.4762 28.8656 26.7141C29.2696 24.3824 29.6834 21.968 29.6834 19.5877C29.6834 19.1837 30.0095 18.8576 30.4135 18.8576C30.8176 18.8576 31.1437 19.1837 31.1437 19.5877C31.1437 22.0946 30.7153 24.5723 30.3016 26.9672C30.0046 28.6952 29.6931 30.4817 29.5568 32.2389C29.2112 36.6637 30.2432 40.076 33.008 43.6489C33.2563 43.9702 33.1979 44.4277 32.8766 44.6711L32.8863 44.6662Z"/>
        <path d="M22.0265 18.6385V27.7655C22.0265 28.3594 22.5084 28.8413 23.1022 28.8413H24.6988C24.8595 26.3393 25.1369 23.7107 25.4339 21.0919C25.5799 19.8263 25.5118 18.6531 25.2878 17.5628H23.1022C22.5084 17.5628 22.0265 18.0447 22.0265 18.6385Z"/>
        <path d="M13.3522 34.6825C12.7583 34.6825 12.2764 35.1644 12.2764 35.7583V46H29.2356C28.6855 45.2504 27.8288 44.1016 26.5583 42.4271C25.2684 40.7283 24.7134 37.9829 24.5869 34.6825H13.3522Z"/>
    </symbol>

</svg>