<svg width="52" height="49" viewBox="0 0 52 49" fill="none" xmlns="http://www.w3.org/2000/svg">
    <path fill-rule="evenodd" clip-rule="evenodd" d="M51.9982 13.3969L50.4941 13.3238L50.4203 11.8335C50.8448 11.8129 51.2584 11.971 51.5589 12.2688C51.8595 12.5665 52.019 12.9763 51.9982 13.3969ZM41.8196 43.6907C46.4795 38.9411 48.9822 31.3108 50.3415 25.0811C51.0391 21.8837 51.4524 18.9716 51.6915 16.8591C51.8112 15.8018 51.8876 14.9423 51.9341 14.3444C51.9574 14.0454 51.9733 13.8116 51.9834 13.6511C51.9885 13.5708 51.9921 13.5088 51.9945 13.4661L51.9972 13.4167L51.9979 13.403L51.9982 13.3969C51.9982 13.3969 51.9982 13.3969 50.4941 13.3238C50.4203 11.8335 50.4203 11.8335 50.4203 11.8335L50.4141 11.8339L50.4003 11.8346L50.3504 11.8372C50.3073 11.8396 50.2447 11.8432 50.1637 11.8482C50.0017 11.8582 49.7657 11.8739 49.464 11.897C48.8605 11.9431 47.993 12.0188 46.9258 12.1374C44.7937 12.3743 41.8544 12.7838 38.6272 13.475C32.2569 14.8394 24.4356 17.3667 19.6568 22.1013C14.7631 26.958 14.1296 33.0199 14.6525 37.6964C14.9146 40.0404 15.4696 42.0831 15.957 43.5381C16.2014 44.2675 16.4305 44.8543 16.6008 45.2635C16.686 45.4682 16.7566 45.6288 16.8072 45.7409C16.8325 45.797 16.8528 45.841 16.8675 45.8723L16.8852 45.9099L16.8907 45.9214L16.8926 45.9253L16.8933 45.9268C16.8933 45.9268 16.8939 45.928 18.2519 45.2832L16.8933 45.9268C17.0417 46.2336 17.292 46.4821 17.6017 46.629L18.2519 45.2832C17.6017 46.629 17.6017 46.629 17.6017 46.629L17.6084 46.6322L17.6201 46.6376L17.658 46.6552C17.6896 46.6697 17.7341 46.6898 17.7907 46.7149C17.904 46.765 18.0662 46.835 18.273 46.9194C18.6863 47.088 19.2791 47.315 20.0159 47.5571C21.4855 48.04 23.5485 48.5898 25.9152 48.8494C30.6366 49.3675 36.7549 48.7411 41.6499 43.8913C41.7127 43.8291 41.7694 43.7619 41.8196 43.6907ZM39.3484 41.9487C39.3953 41.8843 39.4476 41.8232 39.5051 41.7663C43.6264 37.683 46.0377 30.6834 47.3976 24.4506C48.0685 21.3758 48.4674 18.567 48.6984 16.5265C48.7663 15.9267 48.8196 15.3941 48.861 14.9418C48.4044 14.9828 47.8669 15.0356 47.2616 15.1028C45.202 15.3317 42.367 15.727 39.2636 16.3917C32.973 17.739 25.9084 20.1279 21.787 24.2109C17.781 28.1869 17.1788 33.1892 17.6461 37.3678C17.879 39.4514 18.3754 41.2843 18.8155 42.598C19.0349 43.2529 19.2386 43.7737 19.3853 44.126C19.3886 44.1341 19.392 44.1421 19.3953 44.15C19.4034 44.1534 19.4117 44.1568 19.4201 44.1602C19.7761 44.3055 20.3023 44.5073 20.964 44.7247C22.2912 45.1608 24.1426 45.6527 26.2467 45.8835C30.4067 46.3399 35.3714 45.7662 39.3484 41.9487Z" fill="#FF4E20"/>
    <path fill-rule="evenodd" clip-rule="evenodd" d="M43.9994 19.7889C44.5874 20.3718 44.5871 21.3165 43.9988 21.899L19.3165 46.3386C18.7282 46.9211 17.7747 46.9208 17.1868 46.3379C16.5988 45.7551 16.5991 44.8104 17.1874 44.2279L41.8697 19.7883C42.458 19.2058 43.4115 19.2061 43.9994 19.7889Z" fill="#FF4E20"/>
    <path fill-rule="evenodd" clip-rule="evenodd" d="M24.4263 29.2289C25.258 29.2289 25.9322 29.8969 25.9322 30.7209V37.6738H32.9499C33.7816 37.6738 34.4558 38.3418 34.4558 39.1659C34.4558 39.9899 33.7816 40.6579 32.9499 40.6579H24.4263C23.5946 40.6579 22.9204 39.9899 22.9204 39.1659V30.7209C22.9204 29.8969 23.5946 29.2289 24.4263 29.2289Z" fill="#FF4E20"/>
    <path fill-rule="evenodd" clip-rule="evenodd" d="M30.1187 23.589C30.9504 23.589 31.6247 24.257 31.6247 25.081V32.0339H38.6423C39.474 32.0339 40.1483 32.7019 40.1483 33.526C40.1483 34.35 39.474 35.018 38.6423 35.018H30.1187C29.287 35.018 28.6128 34.35 28.6128 33.526V25.081C28.6128 24.257 29.287 23.589 30.1187 23.589Z" fill="#FF4E20"/>
    <path fill-rule="evenodd" clip-rule="evenodd" d="M35.7961 17.964C36.6278 17.964 37.3021 18.632 37.3021 19.4561V26.409H44.3197C45.1514 26.409 45.8257 27.077 45.8257 27.901C45.8257 28.725 45.1514 29.393 44.3197 29.393H35.7961C34.9644 29.393 34.2902 28.725 34.2902 27.901V19.4561C34.2902 18.632 34.9644 17.964 35.7961 17.964Z" fill="#FF4E20"/>
    <path fill-rule="evenodd" clip-rule="evenodd" d="M14.5329 0.489171L13.4179 1.49204L12.3031 0.488952C12.5885 0.17752 12.9934 -4.1613e-05 13.418 7.31491e-09C13.8427 4.17166e-05 14.2475 0.177682 14.5329 0.489171ZM13.4177 3.78549C13.4878 3.86947 13.5606 3.95718 13.636 4.0485C14.4636 5.05099 15.5947 6.48442 16.8042 8.20199C19.2412 11.6629 21.9197 16.1713 23.1396 20.5816C23.3594 21.3763 24.1878 21.844 24.99 21.6262C25.7921 21.4085 26.2642 20.5877 26.0443 19.7929C24.6891 14.893 21.7805 10.0537 19.2743 6.49458C18.0121 4.70213 16.8326 3.20743 15.9674 2.1593C15.5345 1.63485 15.1794 1.22118 14.9309 0.936822C14.8066 0.794619 14.7089 0.684678 14.6414 0.609315L14.5632 0.522468L14.5419 0.499018L14.534 0.490346C14.534 0.490346 14.5329 0.489171 13.4179 1.49204C12.3031 0.488952 12.3031 0.488952 12.3031 0.488952L12.2993 0.493087L12.2912 0.501961L12.2624 0.533753C12.2376 0.561129 12.2019 0.600799 12.1559 0.652291C12.064 0.755267 11.9312 0.905577 11.7633 1.09945C11.4275 1.4871 10.9509 2.04948 10.3804 2.7564C9.2408 4.16863 7.7199 6.16576 6.1965 8.50514C3.19614 13.1126 0 19.3237 0 25.0811C0 31.0006 3.34523 35.0713 6.52099 37.5893C8.11336 38.8518 9.69807 39.755 10.882 40.3428C11.4759 40.6376 11.9738 40.8555 12.3282 41.0014C12.5055 41.0744 12.6472 41.1295 12.7475 41.1674C12.7977 41.1863 12.8375 41.201 12.8662 41.2114L12.901 41.2239L12.9119 41.2278L12.9173 41.2297C12.9173 41.2297 12.9186 41.2301 13.4179 39.8225L12.9173 41.2297C13.2399 41.342 13.5927 41.3426 13.9154 41.2307L13.4179 39.8225C13.9154 41.2307 13.9154 41.2307 13.9154 41.2307L13.9192 41.2294L13.9247 41.2275L13.9411 41.2217L13.9944 41.2024C14.0388 41.1862 14.1008 41.1631 14.179 41.1329C14.3353 41.0725 14.5564 40.9838 14.8304 40.8651C15.3778 40.6281 16.1395 40.2704 17.0186 39.7794C17.7432 39.3748 17.9995 38.4649 17.5911 37.747C17.1827 37.0292 16.2643 36.7752 15.5397 37.1798C14.7623 37.614 14.0934 37.9276 13.6243 38.1308C13.5504 38.1628 13.4815 38.192 13.4181 38.2185C13.1245 38.096 12.7168 37.9159 12.2313 37.6749C11.1817 37.1539 9.78847 36.358 8.40285 35.2594C5.62262 33.0551 3.01187 29.7551 3.01187 25.0811C3.01187 20.2451 5.77172 14.6617 8.72734 10.1229C10.1819 7.88923 11.639 5.97535 12.7329 4.61986C12.9817 4.31147 13.2115 4.0324 13.4177 3.78549Z" fill="#FF4E20"/>
</svg>
