<svg width="46" height="46" viewBox="0 0 46 46" fill="none" xmlns="http://www.w3.org/2000/svg">
    <path d="M37.0997 15.4978C36.9241 15.0877 36.5882 14.7618 36.1655 14.5914C35.9575 14.5054 35.7342 14.4598 35.5081 14.4571H26.8582C26.3994 14.4571 25.9594 14.634 25.635 14.9488C25.3105 15.2636 25.1283 15.6905 25.1283 16.1357C25.1283 16.5809 25.3105 17.0078 25.635 17.3226C25.9594 17.6374 26.3994 17.8143 26.8582 17.8143H31.3389L21.6683 27.1974L15.9767 21.6581C15.8159 21.5008 15.6245 21.3759 15.4137 21.2907C15.2029 21.2055 14.9768 21.1616 14.7484 21.1616C14.52 21.1616 14.2939 21.2055 14.0831 21.2907C13.8723 21.3759 13.681 21.5008 13.5201 21.6581L3.1403 31.7295C2.97815 31.8855 2.84945 32.0712 2.76162 32.2757C2.67379 32.4803 2.62857 32.6996 2.62857 32.9212C2.62857 33.1428 2.67379 33.3622 2.76162 33.5668C2.84945 33.7713 2.97815 33.957 3.1403 34.113C3.30112 34.2703 3.49246 34.3952 3.70327 34.4804C3.91408 34.5657 4.1402 34.6095 4.36858 34.6095C4.59695 34.6095 4.82307 34.5657 5.03388 34.4804C5.2447 34.3952 5.43604 34.2703 5.59686 34.113L14.7484 25.2167L20.44 30.7559C20.6009 30.9132 20.7922 31.0381 21.003 31.1233C21.2138 31.2085 21.4399 31.2524 21.6683 31.2524C21.8967 31.2524 22.1228 31.2085 22.3336 31.1233C22.5444 31.0381 22.7358 30.9132 22.8966 30.7559L33.7781 20.181V24.5285C33.7781 24.9736 33.9604 25.4006 34.2848 25.7154C34.6093 26.0302 35.0493 26.207 35.5081 26.207C35.9669 26.207 36.407 26.0302 36.7314 25.7154C37.0558 25.4006 37.2381 24.9736 37.2381 24.5285V16.1357C37.2354 15.9163 37.1883 15.6996 37.0997 15.4978Z" fill="#FF4E20"/>
    <path fill-rule="evenodd" clip-rule="evenodd" d="M23 42.9333C34.0089 42.9333 42.9333 34.0089 42.9333 23C42.9333 11.9911 34.0089 3.06667 23 3.06667C11.9911 3.06667 3.06667 11.9911 3.06667 23C3.06667 34.0089 11.9911 42.9333 23 42.9333ZM23 46C35.7025 46 46 35.7025 46 23C46 10.2975 35.7025 0 23 0C10.2975 0 0 10.2975 0 23C0 35.7025 10.2975 46 23 46Z" fill="#FF4E20"/>
</svg>
