<svg width="44" height="46" viewBox="0 0 44 46" fill="none" xmlns="http://www.w3.org/2000/svg">
    <path d="M30.6287 25.7093L30.6176 25.7049C30.4781 25.6454 30.3431 25.577 30.2015 25.5219C31.7826 24.2879 33.0613 22.7121 33.9409 20.9136C34.8206 19.1152 35.2782 17.1412 35.2791 15.1407C35.2737 14.6763 35.2405 14.2126 35.1795 13.7522C35.2136 13.6645 35.2417 13.5747 35.2636 13.4833L35.8856 8.20011C36.0797 6.53058 35.6293 4.85 34.6257 3.49872C33.6221 2.14743 32.1403 1.22644 30.4804 0.92225L28.7317 0.607067C24.2804 -0.202356 19.7186 -0.202356 15.2673 0.607067L13.5165 0.92225C11.8565 1.22644 10.3747 2.14743 9.37109 3.49872C8.36749 4.85 7.91712 6.53058 8.1112 8.20011L8.73097 13.4833C8.75361 13.5747 8.78245 13.6646 8.81729 13.7522C8.75634 14.2126 8.72308 14.6763 8.71769 15.1407C8.71863 17.1412 9.17622 19.1152 10.0559 20.9136C10.9355 22.7121 12.2142 24.2879 13.7953 25.5219C13.6537 25.577 13.5187 25.6454 13.3792 25.7049L13.3682 25.7093C9.74458 27.226 6.59477 29.6809 4.24578 32.8191C1.89678 35.9574 0.434223 39.6645 0.00996107 43.5557C-0.0451493 44.1323 0.129941 44.7074 0.497357 45.1565C0.864773 45.6057 1.39498 45.8927 1.97328 45.9555C2.55158 46.0184 3.13148 45.852 3.58755 45.4924C4.04362 45.1328 4.33918 44.6089 4.41031 44.034C4.7218 41.1733 5.73617 38.4331 7.36375 36.0555C8.99134 33.6779 11.182 31.7361 13.7422 30.4018L20.4335 37.0647C20.8486 37.4779 21.4115 37.71 21.9984 37.71C22.5853 37.71 23.1482 37.4779 23.5633 37.0647L30.2546 30.4018C32.8148 31.7361 35.0055 33.6779 36.6331 36.0555C38.2606 38.4331 39.275 41.1733 39.5865 44.034C39.6453 44.5733 39.9019 45.0721 40.307 45.4349C40.7122 45.7976 41.2374 45.9988 41.7822 46C41.8636 45.9998 41.9449 45.9954 42.0257 45.9868C42.3148 45.9555 42.5949 45.8678 42.85 45.7286C43.1051 45.5895 43.3301 45.4017 43.5122 45.1759C43.6943 44.9501 43.83 44.6908 43.9114 44.4128C43.9929 44.1348 44.0185 43.8436 43.9868 43.5557C43.5624 39.6643 42.0995 35.957 39.7501 32.8187C37.4007 29.6805 34.2504 27.2257 30.6264 25.7093H30.6287ZM12.5071 7.68435C12.4428 7.12808 12.5931 6.56826 12.9276 6.11815C13.2621 5.66804 13.7558 5.36126 14.3089 5.25987L16.0575 4.94469C19.9856 4.22987 24.0112 4.22987 27.9393 4.94469L29.6879 5.25987C30.241 5.36126 30.7347 5.66804 31.0692 6.11815C31.4037 6.56826 31.554 7.12808 31.4897 7.68435L31.0957 11.0213H12.9011L12.5071 7.68435ZM21.9984 32.392L18.3462 28.7531C20.7535 28.2377 23.2433 28.2377 25.6506 28.7531L21.9984 32.392ZM21.9984 23.9592C19.7008 23.9566 17.4941 23.0657 15.8432 21.4745C14.1924 19.8833 13.2265 17.716 13.149 15.4295H30.8478C30.7703 17.716 29.8044 19.8833 28.1536 21.4745C26.5027 23.0657 24.296 23.9566 21.9984 23.9592Z" fill="#FF4E20"/>
</svg>
