<svg width="57" height="58" viewBox="0 0 57 58" fill="none" xmlns="http://www.w3.org/2000/svg">
    <path d="M21.0016 23.389V25.8721C21.0037 27.6434 21.7164 29.3416 22.9835 30.5942C24.2505 31.8467 25.9684 32.5513 27.7602 32.5533H29.0537C30.8453 32.5512 32.563 31.8465 33.8297 30.5939C35.0964 29.3414 35.8088 27.6432 35.8105 25.8721V23.389C35.8087 21.618 35.0963 19.9201 33.8295 18.6678C32.5628 17.4156 30.8452 16.7113 29.0537 16.7095H27.7602C25.9685 16.7112 24.2507 17.4155 22.9837 18.6677C21.7166 19.9199 21.0038 21.6179 21.0016 23.389ZM24.7537 23.389C24.7549 22.6013 25.0721 21.8462 25.6357 21.2894C26.1994 20.7326 26.9634 20.4195 27.7602 20.4187H29.0537C29.8502 20.4198 30.6138 20.7331 31.1771 21.2899C31.7403 21.8467 32.0572 22.6016 32.0583 23.389V25.8721C32.0576 26.6598 31.7409 27.4151 31.1776 27.9722C30.6143 28.5294 29.8505 28.843 29.0537 28.8442H27.7602C26.9631 28.8434 26.1988 28.53 25.6352 27.9728C25.0715 27.4156 24.7545 26.6601 24.7537 25.8721V23.389ZM39.6625 50.8343L40.0646 43.7535C42.1892 40.9247 46.1273 35.9855 49.1686 32.1964C49.1695 32.2758 49.1812 32.3485 49.1812 32.4284C49.1819 33.3015 49.1268 34.1738 49.0161 35.0401C48.9852 35.2817 49.0027 35.5271 49.0678 35.762C49.1328 35.997 49.244 36.217 49.3951 36.4094C49.5462 36.6018 49.7342 36.7629 49.9483 36.8835C50.1624 37.004 50.3985 37.0817 50.643 37.112C50.7215 37.1213 50.8004 37.1262 50.8794 37.1265C51.336 37.126 51.7768 36.9609 52.1191 36.6621C52.4614 36.3634 52.6818 35.9516 52.739 35.5037C52.8687 34.4836 52.9336 33.4565 52.9332 32.4284C52.9284 30.9556 52.7806 29.4866 52.4919 28.0416C53.4118 26.8578 54.0115 26.1066 54.016 26.1021C54.274 25.7798 54.4165 25.3819 54.4211 24.9709C54.4257 24.5599 54.2923 24.1589 54.0416 23.831L50.3446 19.0006C50.1708 18.7738 49.9467 18.5894 49.6893 18.4619C49.432 18.3344 49.1484 18.2671 48.8606 18.2653C48.6873 18.2832 48.5169 18.3218 48.3531 18.3803C46.2107 15.3967 43.4123 12.9317 40.1681 11.1706C36.9238 9.40938 33.3181 8.39777 29.6216 8.21171C29.3745 8.19517 29.1265 8.22809 28.8924 8.30849C28.6584 8.38889 28.4432 8.51512 28.2597 8.67964C28.0762 8.84416 27.9281 9.04357 27.8243 9.26596C27.7206 9.48836 27.6632 9.72915 27.6558 9.97395C27.6437 10.2173 27.6803 10.4605 27.7634 10.6899C27.8465 10.9192 27.9744 11.1301 28.1399 11.3106C28.3055 11.4911 28.5054 11.6375 28.7282 11.7416C28.9509 11.8457 29.1923 11.9054 29.4384 11.9173C32.6808 12.0831 35.8387 12.9981 38.6587 14.5888C41.4786 16.1795 43.8821 18.4016 45.6761 21.0767C42.7561 24.8241 39.5472 28.3426 36.0781 31.6007C34.0004 33.3477 31.318 34.2294 28.5958 34.0602C28.5335 34.0602 28.4602 34.0584 28.4071 34.0602H28.3905C25.613 34.2241 22.8758 33.3429 20.7286 31.5936C17.2723 28.3489 14.0753 24.8445 11.1662 21.112C11.6618 20.3333 12.2092 19.588 12.8047 18.8811C13.1342 18.5122 13.3019 18.029 13.271 17.5379C13.24 17.0467 13.013 16.5879 12.6398 16.2622C12.2667 15.9365 11.7779 15.7707 11.2811 15.8013C10.7842 15.8319 10.32 16.0563 9.99061 16.4252C9.44534 17.0365 9.02416 17.7369 8.5428 18.3973C8.35906 18.3228 8.1643 18.2783 7.96613 18.2655C7.67869 18.2787 7.39717 18.3509 7.13949 18.4775C6.8818 18.6041 6.65357 18.7823 6.46932 19.0008L2.7721 23.831C2.52146 24.1589 2.388 24.5599 2.39265 24.9709C2.39729 25.3819 2.53978 25.7798 2.79777 26.1021L4.32392 28.0201C4.03257 29.472 3.88408 30.9483 3.88052 32.4284C3.88115 37.1014 5.24889 41.6745 7.81889 45.5966C10.3889 49.5186 14.0515 52.6222 18.3652 54.5333L18.4549 54.5682C21.5846 55.9565 24.976 56.6742 28.4063 56.6741C31.8365 56.6741 35.228 55.9563 38.3576 54.568L38.3855 54.5572L38.4377 54.537C38.8041 54.3758 39.1632 54.2074 39.5187 54.0299C39.7386 53.92 39.9345 53.7684 40.0951 53.5837C40.2558 53.399 40.378 53.1848 40.4549 52.9534C40.5318 52.722 40.5619 52.4778 40.5433 52.2349C40.5247 51.992 40.458 51.7551 40.3468 51.5377C40.1884 51.2456 39.9516 51.0022 39.6625 50.8343ZM7.63268 32.4284C7.63268 32.3487 7.64416 32.2769 7.64506 32.1977C10.7329 36.0452 14.6318 40.936 16.7492 43.7535L17.0811 49.6194C14.1833 47.7577 11.8014 45.2104 10.1515 42.2084C8.5016 39.2065 7.63581 35.8449 7.63268 32.4284ZM20.9471 51.5529L20.4631 42.9946C20.4433 42.6363 20.3185 42.2915 20.1039 42.0021C17.4273 38.3943 11.1284 30.5648 7.94977 26.6165C7.90208 26.5298 7.84686 26.4473 7.78475 26.3701L6.63787 24.9284L8.00459 23.1426C11.1301 27.1726 14.5776 30.9482 18.3139 34.4333C21.1405 36.7308 24.7246 37.9178 28.3809 37.7673L28.3903 37.7694L28.4013 37.7682L28.4232 37.7694L28.4495 37.7639C32.0942 37.8974 35.6637 36.7162 38.4926 34.4405C42.2313 30.953 45.6812 27.175 48.8092 23.1426L50.1778 24.932C49.8626 25.3341 49.4762 25.8303 49.0383 26.399C45.9329 30.2532 39.4728 38.2729 36.7101 42.0021C36.4958 42.2916 36.371 42.6364 36.351 42.9946L35.8653 51.5538C31.0655 53.3877 25.7466 53.3874 20.9471 51.5529ZM11.7421 11.0659C12.9415 11.5312 13.9864 12.3168 14.7603 13.3351C15.5342 14.3534 16.0065 15.5643 16.1246 16.8326C16.1246 17.3244 16.3223 17.7962 16.6741 18.144C17.0259 18.4918 17.5031 18.6872 18.0007 18.6872C18.4983 18.6872 18.9755 18.4918 19.3273 18.144C19.6791 17.7962 19.8768 17.3244 19.8768 16.8326C19.9945 15.5657 20.4656 14.3559 21.2377 13.3381C22.0099 12.3202 23.0527 11.5343 24.25 11.0677C24.5986 10.9306 24.8977 10.6934 25.1086 10.3867C25.3196 10.08 25.4328 9.71783 25.4336 9.34693C25.4344 8.97604 25.3228 8.6134 25.1132 8.3058C24.9035 7.99819 24.6055 7.75972 24.2575 7.62112C23.0584 7.15573 22.0138 6.37004 21.2402 5.35177C20.4666 4.33349 19.9945 3.12272 19.8767 1.8546C19.8767 1.36273 19.679 0.891007 19.3272 0.543201C18.9753 0.195396 18.4982 0 18.0006 0C17.503 0 17.0258 0.195396 16.674 0.543201C16.3222 0.891007 16.1245 1.36273 16.1245 1.8546C16.0064 3.12288 15.534 4.33376 14.7601 5.35205C13.9863 6.37034 12.9413 7.15598 11.742 7.62127C11.3946 7.75972 11.0969 7.99768 10.8873 8.30459C10.6777 8.61151 10.5658 8.97336 10.5658 9.34366C10.5658 9.71397 10.6777 10.0758 10.8873 10.3827C11.0969 10.6896 11.3946 10.9276 11.742 11.0661L11.7421 11.0659ZM18.0007 7.36575C18.5709 8.10388 19.2326 8.76833 19.9702 9.3435C19.233 9.91982 18.5714 10.5848 18.0007 11.3231C17.4295 10.5852 16.768 9.9203 16.0312 9.3435C16.7683 8.76789 17.4299 8.10355 18.0006 7.36589L18.0007 7.36575ZM8.53773 51.8783C8.5377 52.2503 8.42446 52.6137 8.21274 52.9212C8.00101 53.2286 7.7006 53.4661 7.35055 53.6025C7.32125 53.6152 6.14502 54.1223 6.14502 55.1021C6.14502 55.594 5.94737 56.0657 5.59553 56.4135C5.2437 56.7614 4.76651 56.9567 4.26895 56.9567C3.77138 56.9567 3.29419 56.7614 2.94236 56.4135C2.59053 56.0657 2.39287 55.594 2.39287 55.1021C2.39287 54.1187 1.19834 53.608 1.18734 53.6025C0.838767 53.4665 0.53938 53.2304 0.327763 52.9247C0.116145 52.619 0.00199606 52.2576 2.59388e-05 51.8872C-0.00194418 51.5167 0.108355 51.1542 0.316708 50.8463C0.525062 50.5383 0.821923 50.2992 1.16903 50.1596C1.24783 50.1269 2.39287 49.6217 2.39287 48.6563C2.39287 48.1644 2.59053 47.6927 2.94236 47.3449C3.29419 46.9971 3.77138 46.8017 4.26895 46.8017C4.76651 46.8017 5.2437 46.9971 5.59553 47.3449C5.94737 47.6927 6.14502 48.1644 6.14502 48.6563C6.14502 49.6397 7.33772 50.1487 7.35055 50.1523C7.70069 50.2892 8.00112 50.5269 8.21283 50.8347C8.42453 51.1425 8.53773 51.5061 8.53773 51.8783ZM55.8261 46.9339C54.6266 46.469 53.5814 45.6834 52.8075 44.6651C52.0336 43.6467 51.5614 42.4357 51.4436 41.1673C51.4436 40.6754 51.2459 40.2037 50.8941 39.8559C50.5423 39.5081 50.0651 39.3127 49.5675 39.3127C49.07 39.3127 48.5928 39.5081 48.2409 39.8559C47.8891 40.2037 47.6915 40.6754 47.6915 41.1673C47.5737 42.4357 47.1015 43.6467 46.3276 44.6651C45.5536 45.6834 44.5085 46.469 43.3089 46.9339C42.9618 47.0728 42.6645 47.311 42.4553 47.618C42.2461 47.925 42.1344 48.2868 42.1346 48.657C42.1348 49.0271 42.2468 49.3888 42.4564 49.6956C42.666 50.0024 42.9635 50.2403 43.3108 50.3787C44.5098 50.8442 45.5544 51.6299 46.328 52.6482C47.1015 53.6665 47.5735 54.8773 47.6913 56.1454C47.6913 56.6373 47.889 57.109 48.2408 57.4568C48.5927 57.8046 49.0699 58 49.5674 58C50.065 58 50.5422 57.8046 50.894 57.4568C51.2458 57.109 51.4435 56.6373 51.4435 56.1454C51.5607 54.8786 52.0317 53.6688 52.804 52.6512C53.5762 51.6336 54.6192 50.8481 55.8167 50.3824C56.1652 50.2449 56.4641 50.0076 56.6749 49.7009C56.8858 49.3942 56.999 49.0321 57 48.6612C57.001 48.2904 56.8897 47.9277 56.6805 47.6199C56.4712 47.3121 56.1736 47.0732 55.8259 46.9339H55.8261ZM49.5675 50.6341C48.9969 49.8964 48.3352 49.232 47.598 48.6564C48.3353 48.08 48.9969 47.415 49.5675 46.6768C50.1382 47.415 50.7998 48.08 51.5371 48.6564C50.7999 49.232 50.1384 49.8963 49.5678 50.634L49.5675 50.6341Z" fill="#FF4E20"/>
</svg>
