<svg width="34" height="24" viewBox="0 0 34 24" fill="none" xmlns="http://www.w3.org/2000/svg">
    <path d="M33.9922 8.45835C34.0685 6.2376 33.5851 4.03347 32.5867 2.05061C31.9093 1.23699 30.9692 0.68793 29.9302 0.499095C25.6327 0.107378 21.3174 -0.0531743 17.0029 0.0181268C12.7041 -0.0564105 8.40432 0.0989608 4.12193 0.483581C3.27528 0.638292 2.49176 1.03723 1.86699 1.6317C0.47696 2.91945 0.322512 5.1226 0.168064 6.98442C-0.0560213 10.3319 -0.0560213 13.6907 0.168064 17.0382C0.212746 18.0861 0.368065 19.1263 0.631408 20.1412C0.817634 20.9249 1.19441 21.6498 1.72799 22.2513C2.35701 22.8773 3.15877 23.2989 4.02926 23.4615C7.35903 23.8744 10.7141 24.0455 14.0684 23.9735C19.4741 24.0511 24.2156 23.9735 29.8221 23.5391C30.7139 23.3865 31.5383 22.9643 32.1851 22.3289C32.6175 21.8943 32.9405 21.3624 33.1273 20.7774C33.6796 19.0748 33.9509 17.2928 33.9304 15.5022C33.9922 14.6334 33.9922 9.38926 33.9922 8.45835ZM13.5124 16.4331V6.82927L22.6557 11.6545C20.0919 13.0819 16.7094 14.6954 13.5124 16.4331Z" fill="white"/>
</svg>
